<mxfile host="Electron" agent="Mozilla/5.0 (Macintosh; Intel Mac OS X 10_15_7) AppleWebKit/537.36 (KHTML, like Gecko) draw.io/28.1.2 Chrome/138.0.7204.243 Electron/37.4.0 Safari/537.36" version="28.1.2">
  <diagram name="Page-1" id="3GEHEkXWiyO_Zi_nU8mM">
    <mxGraphModel dx="1106" dy="748" grid="1" gridSize="10" guides="1" tooltips="1" connect="1" arrows="1" fold="1" page="1" pageScale="1" pageWidth="850" pageHeight="1100" math="0" shadow="0">
      <root>
        <mxCell id="0" />
        <mxCell id="1" parent="0" />
        <mxCell id="jWsYO69XkJvmNmhxUWtM-1" value="Customer managed IAM integration" style="rounded=1;whiteSpace=wrap;html=1;strokeColor=#475E75;fillColor=#F5F6F7;arcSize=24;absoluteArcSize=1;imageWidth=64;imageHeight=64;strokeWidth=1.5;dashed=1;dashPattern=1 2;verticalAlign=top;" vertex="1" parent="1">
          <mxGeometry x="580" y="548" width="1086" height="629" as="geometry" />
        </mxCell>
        <mxCell id="jWsYO69XkJvmNmhxUWtM-2" value="" style="rounded=1;whiteSpace=wrap;html=1;strokeColor=#0070F2;fillColor=#EBF8FF;arcSize=32;absoluteArcSize=1;imageWidth=64;imageHeight=64;strokeWidth=1.5;" vertex="1" parent="1">
          <mxGeometry x="797" y="581" width="385" height="189" as="geometry" />
        </mxCell>
        <mxCell id="jWsYO69XkJvmNmhxUWtM-3" value="" style="shape=image;verticalLabelPosition=bottom;labelBackgroundColor=default;verticalAlign=top;aspect=fixed;imageAspect=0;image=data:image/svg+xml,PHN2ZyB4bWxuczp4bGluaz0iaHR0cDovL3d3dy53My5vcmcvMTk5OS94bGluayIgeG1sbnM9Imh0dHA6Ly93d3cudzMub3JnLzIwMDAvc3ZnIiB2aWV3Qm94PSIwIDAgMTQ0Ljc0NyAzOS44MzIiIGlkPSJhIj48ZGVmcz48bGluZWFyR3JhZGllbnQgZ3JhZGllbnRVbml0cz0idXNlclNwYWNlT25Vc2UiIHkyPSIzOS44MzIiIHgyPSI0MC4yNTgiIHkxPSIwIiB4MT0iNDAuMjU4IiBpZD0iYiI+PHN0b3Agc3RvcC1jb2xvcj0iIzAwYjhmMSIgb2Zmc2V0PSIwIi8+PHN0b3Agc3RvcC1jb2xvcj0iIzAwYjVlZiIgb2Zmc2V0PSIuMDE2Ii8+PHN0b3Agc3RvcC1jb2xvcj0iIzBkOTBkOCIgb2Zmc2V0PSIuMzA4Ii8+PHN0b3Agc3RvcC1jb2xvcj0iIzE2NzVjOCIgb2Zmc2V0PSIuNTc4Ii8+PHN0b3Agc3RvcC1jb2xvcj0iIzFjNjRiZSIgb2Zmc2V0PSIuODE3Ii8+PHN0b3Agc3RvcC1jb2xvcj0iIzFlNWZiYiIgb2Zmc2V0PSIxIi8+PC9saW5lYXJHcmFkaWVudD48L2RlZnM+PHBvbHlsaW5lIGZpbGwtcnVsZT0iZXZlbm9kZCIgZmlsbD0idXJsKCNiKSIgcG9pbnRzPSIwIDM5LjgzMiA0MC42OTIgMzkuODMyIDgwLjUxNyAwIDAgMCAwIDM5LjgzMiIvPjxwYXRoIGZpbGwtcnVsZT0iZXZlbm9kZCIgZmlsbD0iI2ZmZiIgZD0ibTQ3Ljc4Miw3LjQ4OWwtNy45MjUtLjAwNXYxOC44NDVsLTYuOTI0LTE4Ljg0NWgtNi44NjVsLTUuOTEyLDE1Ljc1OWMtLjYzLTMuOTczLTQuNzQtNS4zNDUtNy45NzQtNi4zNzQtMi4xMzUtLjY4Ni00LjQwMS0xLjY5NC00LjM4LTIuODA5LjAxNy0uOTE1LDEuMjE1LTEuNzY1LDMuNTg5LTEuNjM3LDEuNTk1LjA4NCwzLjAwMS4yMTMsNS44LDEuNTYzbDIuNzUzLTQuNzk1Yy0yLjU1NS0xLjMtNi4wODYtMi4xMjEtOC45NzgtMi4xMjRoLS4wMTdjLTMuMzc0LDAtNi4xODUsMS4wOTMtNy45MjgsMi44OTQtMS4yMTQsMS4yNTgtMS44NjksMi44NTYtMS44OTYsNC42MjMtLjA0NCwyLjQzMi44NDgsNC4xNTcsMi43MjEsNS41MzMsMS41ODMsMS4xNiwzLjYwNiwxLjkxMiw1LjM5LDIuNDY1LDIuMjAxLjY4MSwzLjk5NiwxLjI3NCwzLjk3NSwyLjUzOS0uMDE2LjQ1OS0uMTkxLjg4OC0uNTIxLDEuMjM2LS41NDguNTY2LTEuMzkxLjc3OS0yLjU1NS43OTktMi4yNDQuMDQ4LTMuOTEtLjMwMy02LjU2Mi0xLjg3bC0yLjQ0OCw0Ljg2MWMyLjY0NCwxLjUwNiw1Ljc3NiwyLjM4OCw4Ljk3MiwyLjM4OGwuNDExLS4wMDZjMi43ODItLjA1LDUuMDI2LS44NDIsNi44Mi0yLjI4Ni4xMDMtLjA4MS4xOTYtLjE2Ni4yOTEtLjI1bC0uNzk1LDIuMTIzaDcuMmwxLjIwOC0zLjY3NGMxLjI2NS40MzMsMi43MDQuNjcxLDQuMjMyLjY3MSwxLjQ4NywwLDIuODg5LS4yMjksNC4xMzEtLjYzNWwxLjE2NCwzLjYzN2gxMS43NDJ2LTcuNjA3aDIuNTYxYzYuMTg4LDAsOS44NTEtMy4xNTQsOS44NTEtOC40MzYsMC01Ljg4NS0zLjU1Ny04LjU4NS0xMS4xMzItOC41ODVabS0xOC4zMTcsMTYuMTI0Yy0uOTI1LDAtMS43OTItLjE2LTIuNTM5LS40NDNsMi41MTItNy45MjZoLjA0OGwyLjQ2OCw3Ljk0OGMtLjc0Mi4yNjMtMS41ODkuNDIxLTIuNDg4LjQyMVptMTguNzgzLTQuNTUzaC0xLjc0NnYtNi4zODZoMS43NDZjMi4zMjgsMCw0LjE4NS43NzMsNC4xODUsMy4xNTEsMCwyLjQ2MS0xLjg1NywzLjIzNi00LjE4NSwzLjIzNiIvPjxwYXRoIGZpbGw9IiMwMDJhODYiIGQ9Im04MC4yMTcsNy40MDFoMTAuMDYzYzUuNTk1LDAsOC42NzQsMS45MTcsOC42NzQsNi4xNTgsMCwyLjkwMy0xLjUxMyw1LjAxNC00LjMxMSw1LjcsMy4yOS40NTgsNS4yNzgsMi41ODYsNS4yNzgsNS44OTQsMCw1LjAxNC00LjA2NCw3LjAzNy05LjE4NCw3LjAzN2gtMTAuNTIxVjcuNDAxWm0xMy45NjksNi44MjZjMC0yLjE2NC0xLjQ5Ni0yLjk3My00LjI0LTIuOTczaC01LjA0OXY2LjI5OGg0Ljg5MWMzLjIwMiwwLDQuMzk4LTEuMTYxLDQuMzk4LTMuMzI1Wm0xLjAyMSwxMC41MjFjMC0yLjM1Ny0xLjc3Ny0zLjQ2Ni00LjgzOS0zLjQ2NmgtNS40NzF2Ny4wNTVoNS41MDZjMi44MTUsMCw0LjgwNC0uNzc0LDQuODA0LTMuNTg5WiIvPjxwYXRoIGZpbGw9IiMwMDJhODYiIGQ9Im0xMDkuMDUxLDExLjVoLTcuNTgzdi00LjA5OWgxOS44NDZ2NC4wOTloLTcuNTY1djIwLjY5aC00LjY5N1YxMS41WiIvPjxwYXRoIGZpbGw9IiMwMDJhODYiIGQ9Im0xMjUuMTQ4LDcuNDAxaDEwLjUwNGM2LjE5MiwwLDkuMDk2LDMuMTg1LDkuMDk2LDcuODk5LDAsNC4zOTgtMi44MzMsOC4xNDYtOC44NSw4LjE0NmgtNi4wN3Y4Ljc0NGgtNC42OFY3LjQwMVptMTQuOTAyLDcuOTUyYzAtMi41NTEtMS42ODktMy45MjMtNC45NDQtMy45MjNoLTUuMjc4djguMDRoNS40MTljMy4yNzIsMCw0LjgwNC0xLjU4Myw0LjgwNC00LjExN1oiLz48L3N2Zz4=;strokeWidth=1.5;" vertex="1" parent="1">
          <mxGeometry x="810" y="591" width="67.25" height="18.55" as="geometry" />
        </mxCell>
        <mxCell id="jWsYO69XkJvmNmhxUWtM-4" value="" style="group" vertex="1" connectable="0" parent="1">
          <mxGeometry x="591" y="1096.0899999999997" width="185.12313758876553" height="84.23000000000005" as="geometry" />
        </mxCell>
        <mxCell id="jWsYO69XkJvmNmhxUWtM-5" value="" style="group" vertex="1" connectable="0" parent="jWsYO69XkJvmNmhxUWtM-4">
          <mxGeometry y="35.00000000000004" width="185.12313758876553" height="55" as="geometry" />
        </mxCell>
        <mxCell id="jWsYO69XkJvmNmhxUWtM-6" value="&lt;div style=&quot;&quot;&gt;&lt;p style=&quot;text-align: center;&quot;&gt;&lt;font style=&quot;font-size: 14px; color: rgb(0, 0, 0);&quot;&gt;&lt;font face=&quot;Helvetica&quot; style=&quot;&quot;&gt;&lt;span style=&quot;background-color: initial;&quot;&gt;Third party identity provider&lt;br&gt;&lt;/span&gt;&lt;/font&gt;&lt;font face=&quot;Helvetica&quot; style=&quot;&quot;&gt;&lt;span style=&quot;background-color: initial;&quot;&gt;/&amp;nbsp;&lt;/span&gt;&lt;span style=&quot;background-color: initial;&quot;&gt;identity management&lt;/span&gt;&lt;/font&gt;&lt;/font&gt;&lt;/p&gt;&lt;/div&gt;" style="text;html=1;align=left;verticalAlign=middle;resizable=0;points=[];autosize=1;strokeColor=none;fillColor=none;fontSize=12;fontColor=#556B82;fontFamily=Helvetica;" vertex="1" parent="jWsYO69XkJvmNmhxUWtM-5">
          <mxGeometry x="-2.8768624112344763" y="-15" width="188" height="70" as="geometry" />
        </mxCell>
        <mxCell id="jWsYO69XkJvmNmhxUWtM-7" value="" style="shape=image;editableCssRules=.*;verticalLabelPosition=bottom;labelBackgroundColor=default;verticalAlign=top;aspect=fixed;imageAspect=0;image=data:image/svg+xml,PHN2ZyB4bWxucz0iaHR0cDovL3d3dy53My5vcmcvMjAwMC9zdmciIHZpZXdCb3g9Ii0wLjUgLTAuNSAyOCAyOCIgaGVpZ2h0PSIyOCIgd2lkdGg9IjI4Ij4mI3hhOwkgIDxzdHlsZSB0eXBlPSJ0ZXh0L2NzcyI+LnN0MCB7IHN0b3AtY29sb3I6IHJnYig5MSwgMTE1LCAxMzkpOyB9IC5zdDEgeyBzdG9wLWNvbG9yOiByZ2IoMzQsIDUzLCA3Mik7IH0gPC9zdHlsZT4mI3hhOwk8ZGVmcz4mI3hhOwkJPGxpbmVhckdyYWRpZW50IGdyYWRpZW50VW5pdHM9InVzZXJTcGFjZU9uVXNlIiB5Mj0iMjUuMzA5IiB4Mj0iMjMuNDU0IiB5MT0iMy40NzQiIHgxPSIyLjAzOSIgaWQ9IkEiPiYjeGE7CQkJPHN0b3AgY2xhc3M9InN0MCIvPiYjeGE7CQkJPHN0b3AgY2xhc3M9InN0MSIgb2Zmc2V0PSIxIi8+JiN4YTsJCTwvbGluZWFyR3JhZGllbnQ+JiN4YTsJPC9kZWZzPiYjeGE7CTxwYXRoIGZpbGw9InVybCgjQSkiIGQ9Ik0yMS43NDcgMTMuMmExMS4zNSAxMS4zNSAwIDAgMSA0LjE2NCAzLjk0NWMxLjA1OSAxLjY4IDEuNTg5IDMuNTc5IDEuNTg5IDUuNjk5djMuMTIzYzAgMS4wMjItLjUzIDEuNTM0LTEuNTg5IDEuNTM0SDcuMjgyYy0uNDc1IDAtLjg1OS0uMTQ2LTEuMTUyLS40MzgtLjI5MS0uMjU2LS40MzgtLjYyMS0uNDM4LTEuMDk2di0xLjU4OUgxLjAzNGMtMS4wMjIgMC0xLjUzNC0uNTEyLTEuNTM0LTEuNTM0VjE5LjcyYTcuMjcgNy4yNyAwIDAgMSAxLjI2MS00LjE2NmMuODAzLTEuMjA5IDEuOTIxLTIuMTc1IDMuMjMzLTIuNzkzLS40NjQtLjUyOC0uODE4LTEuMTQzLTEuMDQyLTEuODA5YTYuODggNi44OCAwIDAgMS0uMzMtMi4wODFjMC0uODc3LjE2NS0xLjY4LjQ5NC0yLjQxMWE2LjE3IDYuMTcgMCAwIDEgMS4zMTUtMS45NzNjLjU2OC0uNTczIDEuMjM3LTEuMDM3IDEuOTczLTEuMzY5YTYuMDYgNi4wNiAwIDAgMSAyLjQxMS0uNDkzYy4yNTYgMCAuNDkzLjAxOC43MTIuMDUzYTIuNjUgMi42NSAwIDAgMSAuNzEyLjExQTcuNDEgNy40MSAwIDAgMSAxMi45MjYuMzc3YzEuMTM0LS41ODUgMi4zOTQtLjg4NiAzLjY3LS44NzcgMS4wOTYgMCAyLjEyLjIwMiAzLjA2OC42MDNzMS43NzEuOTY4IDIuNDY1IDEuNjk5Yy42OTQuNjk0IDEuMjQzIDEuNTE1IDEuNjQ1IDIuNDY1LjQwMy45MTIuNjAzIDEuOTE4LjYwMyAzLjAxNC4wMDMgMS4xNTItLjIzOSAyLjI5MS0uNzEyIDMuMzQyLS40MjIgMS4wMDEtMS4wOCAxLjg4NS0xLjkxOCAyLjU3NnpNMTYuNTk0IDIuNjIzYy0xLjMxNSAwLTIuNDI4LjQ1Ni0zLjM0MiAxLjM3MS0uODc3Ljg3Ny0xLjMxNSAxLjk3My0xLjMxNSAzLjI4OHMuNDM4IDIuNDI4IDEuMzE1IDMuMzQyYy45MTIuODc3IDIuMDI3IDEuMzE1IDMuMzQyIDEuMzE1czIuNDExLS40MzggMy4yODgtMS4zMTVhNC41NCA0LjU0IDAgMCAwIDEuMzY5LTMuMzQyYzAtMS4zMTUtLjQ1Ni0yLjQxMS0xLjM2OC0zLjI4OC0uODc3LS45MTQtMS45NzQtMS4zNzEtMy4yODktMS4zNzF6TTguNjUxIDUuNzQ5Yy0uODQyIDAtMS41NzEuMzEtMi4xOTIuOTMxLS41ODQuNTg0LS44NzcgMS4zMTUtLjg3NyAyLjE5MmEzLjA5IDMuMDkgMCAwIDAgLjg3NyAyLjE5MiAzLjA5IDMuMDkgMCAwIDAgMi4xOTIuODc3aDEuNzUzYTcuOTggNy45OCAwIDAgMS0xLjE1LTIuMTM3IDcuNjMgNy42MyAwIDAgMS0uNDM4LTIuNTJ2LS43NzFhNC4wMSA0LjAxIDAgMCAxIC4xNjMtLjc2NmgtLjMyOHpNMi42MjMgMjEuMzExaDMuMjMzYy4zMy0yLjUyMSAxLjM2OS00LjYwMyAzLjEyMy02LjI0N0g3LjI4M2MtMS4zMTUgMC0yLjQzLjQ1Ni0zLjM0NCAxLjM2OS0uODc3Ljg3Ny0xLjMxNSAxLjk3NC0xLjMxNSAzLjI4OXptMjEuNzU0IDEuNTM0YTcuNCA3LjQgMCAwIDAtLjYwMy0zLjAxNGMtLjM4My0uOTIxLS45NDItMS43NTgtMS42NDUtMi40NjVhNy4yNiA3LjI2IDAgMCAwLTIuNDY1LTEuNjk5Yy0uOTcxLS40MDYtMi4wMTUtLjYxMS0zLjA2OC0uNjAzLTEuMDk2IDAtMi4xMTguMjAyLTMuMDY4LjYwMy0uOTEyLjQwMy0xLjczNi45NjgtMi40NjUgMS42OTlhNy42NyA3LjY3IDAgMCAwLTEuNjQ1IDIuNDY1IDcuNCA3LjQgMCAwIDAtLjYwMSAzLjAxNHYxLjUzNGgxNS41NjF6Ii8+JiN4YTs8L3N2Zz4=;" vertex="1" parent="jWsYO69XkJvmNmhxUWtM-4">
          <mxGeometry x="63" y="-18" width="50" height="50" as="geometry" />
        </mxCell>
        <mxCell id="jWsYO69XkJvmNmhxUWtM-8" value="User" style="shape=image;editableCssRules=.*;verticalLabelPosition=bottom;labelBackgroundColor=none;verticalAlign=top;aspect=fixed;imageAspect=0;image=data:image/svg+xml,PHN2ZyB4bWxucz0iaHR0cDovL3d3dy53My5vcmcvMjAwMC9zdmciIHZpZXdCb3g9Ii0wLjUgLTAuNSAyOCAyOCIgaGVpZ2h0PSIyOCIgd2lkdGg9IjI4Ij4mI3hhOwkgIDxzdHlsZSB0eXBlPSJ0ZXh0L2NzcyI+LnN0MCB7IHN0b3AtY29sb3I6IHJnYig5MSwgMTE1LCAxMzkpOyB9IC5zdDEgeyBzdG9wLWNvbG9yOiByZ2IoMzQsIDUzLCA3Mik7IH0gPC9zdHlsZT4mI3hhOwk8ZGVmcz4mI3hhOwkJPGxpbmVhckdyYWRpZW50IGdyYWRpZW50VW5pdHM9InVzZXJTcGFjZU9uVXNlIiB5Mj0iMjUuMzA5IiB4Mj0iMjMuNDU0IiB5MT0iMy40NzQiIHgxPSIyLjAzOSIgaWQ9IkEiPiYjeGE7CQkJPHN0b3AgY2xhc3M9InN0MCIvPiYjeGE7CQkJPHN0b3AgY2xhc3M9InN0MSIgb2Zmc2V0PSIxIi8+JiN4YTsJCTwvbGluZWFyR3JhZGllbnQ+JiN4YTsJPC9kZWZzPiYjeGE7CTxwYXRoIGZpbGw9InVybCgjQSkiIGQ9Ik0tLjUgMTMuNDcyYzAtMS45My4zNzEtMy43MyAxLjExMy01LjQuNzQyLTEuNzA3IDEuNzQ0LTMuMTkyIDMuMDA2LTQuNDUzUzYuMzY1IDEuMzU2IDguMDczLjYxMyAxMS41OTgtLjUgMTMuNTI4LS41czMuNzMuMzcxIDUuNCAxLjExM2MxLjcwNy43NDIgMy4xOTIgMS43NDQgNC40NTMgMy4wMDZzMi4yNjQgMi43NDYgMy4wMDYgNC40NTNjLjc0MiAxLjY3IDEuMTEzIDMuNDcgMS4xMTMgNS40cy0uMzcxIDMuNzQ4LTEuMTEzIDUuNDU1LTEuNzQ0IDMuMTkyLTMuMDA2IDQuNDUzYTE0LjI4IDE0LjI4IDAgMCAxLTQuNDUzIDMuMDA2Yy0xLjY3Ljc0Mi0zLjQ3IDEuMTEzLTUuNCAxLjExM3MtMy43NDgtLjM3MS01LjQ1NS0xLjExM2ExNC4yOCAxNC4yOCAwIDAgMS00LjQ1My0zLjAwNiAxNC4yOCAxNC4yOCAwIDAgMS0zLjAwNi00LjQ1M0MtLjEyOSAxNy4yMi0uNSAxNS40MDItLjUgMTMuNDcyem0xNi44MTEgNC4yMzFhNi42NSA2LjY1IDAgMCAxIDMuMjg0LjgzNWMxLjAwMi41MiAxLjgxOCAxLjI0MyAyLjQ0OSAyLjE3MWExMC4xNCAxMC4xNCAwIDAgMCAxLjk0OC0zLjI4NGMuNDgyLTEuMjI1LjcyNC0yLjU0Mi43MjQtMy45NTIgMC0xLjU1OS0uMjk3LTMuMDA2LS44OTEtNC4zNDItLjU5NC0xLjM3My0xLjM5Mi0yLjU2MS0yLjM5NC0zLjU2M3MtMi4xOS0xLjgtMy41NjMtMi4zOTRjLTEuMzM2LS41OTQtMi43ODMtLjg5MS00LjM0Mi0uODkxcy0zLjAyNC4yOTctNC4zOTguODkxYy0xLjMzNi41OTQtMi41MjQgMS4zOTItMy41NjMgMi4zOTRBMTEuMzUgMTEuMzUgMCAwIDAgMy4xNzQgOS4xM2MtLjU5NCAxLjMzNi0uODkxIDIuNzgzLS44OTEgNC4zNDIgMCAxLjQxLjIyMyAyLjcyOC42NjggMy45NTIuNDgyIDEuMjI1IDEuMTUgMi4zMTkgMi4wMDQgMy4yODQuNjMxLS45MjggMS40NDctMS42NTEgMi40NDktMi4xNzFhNi42NSA2LjY1IDAgMCAxIDMuMjg0LS44MzV6bTIuNzgzLTcuMDE0YTUuNjggNS42OCAwIDAgMS0uNDQ1IDIuMjI3IDUuODcgNS44NyAwIDAgMS0xLjIyNSAxLjc4MWMtLjQ4Mi40ODItMS4wNTguODcyLTEuNzI2IDEuMTY5cy0xLjM5Mi40NDUtMi4xNzEuNDQ1YTUuNjggNS42OCAwIDAgMS0yLjIyNy0uNDQ1IDYuNDQgNi40NCAwIDAgMS0xLjc4MS0xLjE2OSA2LjQ0IDYuNDQgMCAwIDEtMS4xNjktMS43ODEgNS42OCA1LjY4IDAgMCAxLS40NDUtMi4yMjdjMC0uNzc5LjE0OC0xLjUwMy40NDUtMi4xNzFBNi40NCA2LjQ0IDAgMCAxIDkuNTIgNi43MzdhNS44NyA1Ljg3IDAgMCAxIDEuNzgxLTEuMjI1IDUuNjggNS42OCAwIDAgMSAyLjIyNy0uNDQ1Yy43NzkgMCAxLjUwMy4xNDggMi4xNzEuNDQ1czEuMjQzLjcwNSAxLjcyNiAxLjIyNWE1Ljg3IDUuODcgMCAwIDEgMS4yMjUgMS43ODFjLjI5Ny42NjguNDQ1IDEuMzkyLjQ0NSAyLjE3MXptLTIuNzgzIDBjMC0uNzc5LS4yNzgtMS40MjktLjgzNS0xLjk0OC0uNTU3LS41NTctMS4yMDYtLjgzNS0xLjk0OC0uODM1YTIuNzMgMi43MyAwIDAgMC0yLjAwNC44MzVjLS41NTcuNTItLjgzNSAxLjE2OS0uODM1IDEuOTQ4YTIuNzMgMi43MyAwIDAgMCAuODM1IDIuMDA0Yy41NTcuNTIgMS4yMjUuNzc5IDIuMDA0Ljc3OS43NDIgMCAxLjM5Mi0uMjYgMS45NDgtLjc3OWEyLjczIDIuNzMgMCAwIDAgLjgzNS0yLjAwNHpNNy4wNzEgMjIuNjU3Yy44OTEuNjMxIDEuODc0IDEuMTMyIDIuOTUgMS41MDMgMS4xMTMuMzcxIDIuMjgyLjU1NyAzLjUwNy41NTcgMS4xODggMCAyLjMxOS0uMTg2IDMuMzk2LS41NTcgMS4xMTMtLjM3MSAyLjExNS0uODcyIDMuMDA2LTEuNTAzLS4zNzEtLjY2OC0uODkxLTEuMTg4LTEuNTU5LTEuNTU5LS42MzEtLjQwOC0xLjMxNy0uNjEyLTIuMDYtLjYxMmgtNS42MjJjLS43NDIgMC0xLjQ0Ny4yMDQtMi4xMTUuNjEyLS42MzEuMzcxLTEuMTMyLjg5MS0xLjUwMyAxLjU1OXoiLz4mI3hhOzwvc3ZnPg==;fontStyle=1" vertex="1" parent="1">
          <mxGeometry x="656" y="664.0899999999999" width="48" height="48" as="geometry" />
        </mxCell>
        <mxCell id="jWsYO69XkJvmNmhxUWtM-9" value="Mobile/Desktop&lt;br&gt;&lt;b&gt;&lt;font style=&quot;font-size: 16px;&quot;&gt;Application Clients&lt;/font&gt;&lt;/b&gt;" style="shape=image;editableCssRules=.*;verticalLabelPosition=bottom;labelBackgroundColor=none;verticalAlign=top;aspect=fixed;imageAspect=0;html=1;image=data:image/svg+xml,PHN2ZyB4bWxucz0iaHR0cDovL3d3dy53My5vcmcvMjAwMC9zdmciIHZpZXdCb3g9Ii0wLjUgLTAuNSAyOCAyMy4zNDMiIGhlaWdodD0iMjMuMzQzIiB3aWR0aD0iMjgiPiYjeGE7CSAgPHN0eWxlIHR5cGU9InRleHQvY3NzIj4uc3QwIHsgc3RvcC1jb2xvcjogcmdiKDkxLCAxMTUsIDEzOSk7IH0gLnN0MSB7IHN0b3AtY29sb3I6IHJnYigzNCwgNTMsIDcyKTsgfSA8L3N0eWxlPiYjeGE7CTxkZWZzPiYjeGE7CQk8bGluZWFyR3JhZGllbnQgZ3JhZGllbnRVbml0cz0idXNlclNwYWNlT25Vc2UiIHkyPSIyNC4yMTciIHgyPSIxOS41NCIgeTE9IjIuODEzIiB4MT0iMi4wMzkiIGlkPSJBIj4mI3hhOwkJCTxzdG9wIGNsYXNzPSJzdDAiLz4mI3hhOwkJCTxzdG9wIGNsYXNzPSJzdDEiIG9mZnNldD0iMSIvPiYjeGE7CQk8L2xpbmVhckdyYWRpZW50PiYjeGE7CTwvZGVmcz4mI3hhOwk8cGF0aCBmaWxsPSJ1cmwoI0EpIiBkPSJNMTMuNTI3IDE4LjE4NnYyLjNoMS4xNWMuNzY4IDAgMS4xNS40MDMgMS4xNSAxLjIwNi4wMDQuMTUyLS4wMjIuMzA0LS4wNzkuNDQ1cy0uMTQxLjI3LS4yNDkuMzc3Yy0uMTgyLjIxNy0uNDU2LjMyOC0uODIyLjMyOEg3LjY2NGMtLjE1Mi4wMDQtLjMwMy0uMDIzLS40NDQtLjA4cy0uMjY5LS4xNDItLjM3Ni0uMjUtLjE5My0uMjM1LS4yNS0uMzc2LS4wODQtLjI5Mi0uMDgtLjQ0NGMwLS4zNjYuMTEtLjY1Ny4zMy0uODc3LjEwNy0uMTA4LjIzNS0uMTkzLjM3Ni0uMjVzLjI5Mi0uMDg0LjQ0NC0uMDhoMy41MDd2LTIuM0gzLjAwN2EzLjUzIDMuNTMgMCAwIDEtMi41MjEtLjk4NyAzLjUzIDMuNTMgMCAwIDEtLjk4NS0yLjUxOVYzLjAwOWMwLS45ODcuMzMtMS44MDkuOTg3LTIuNDY3LjMyNy0uMzM2LjcxOS0uNjAyIDEuMTUyLS43ODJzLjg5OS0uMjY4IDEuMzY4LS4yNmgxOC42ODNBMy4yNSAzLjI1IDAgMCAxIDI0LjE1Ni41NDJjLjY5NC42NTggMS4wNDEgMS40OCAxLjA0MSAyLjQ2NXYyLjM1NmMuMDA0LjE1Mi0uMDIyLjMwNC0uMDc5LjQ0NXMtLjE0MS4yNy0uMjQ5LjM3N2MtLjExNi4xMTItLjI1NC4xOTgtLjQwNC4yNTVzLS4zMTEuMDgyLS40NzIuMDc1Yy0uMTUyLjAwNC0uMzA0LS4wMjMtLjQ0NS0uMDhzLS4yNy0uMTQyLS4zNzctLjI1LS4xOTMtLjIzNi0uMjUtLjM3Ny0uMDg0LS4yOTMtLjA4LS40NDVWMy4wMDljMC0uNzY4LS4zODItMS4xNTItMS4xNS0xLjE1MkgzLjAwN2MtLjc2OCAwLTEuMTUuMzg0LTEuMTUgMS4xNXYxMS42NzJjMCAuNzY2LjM4MiAxLjE1IDEuMTUgMS4xNWgxMS42N2MuNzY4IDAgMS4xNS40MDMgMS4xNSAxLjIwNi4wMDQuMTUyLS4wMjMuMzAzLS4wNzkuNDQ0cy0uMTQxLjI2OS0uMjQ5LjM3NmMtLjE4Mi4yMTktLjQ1Ni4zMy0uODIyLjMzem0xMi44MjItOS4zN2MuNzY2IDAgMS4xNS40MDMgMS4xNSAxLjIwNnYxMS42N2MuMDA0LjE1Mi0uMDIzLjMwNC0uMDguNDQ1cy0uMTQyLjI3LS4yNS4zNzdjLS4xODIuMjE3LS40NTYuMzI4LS44MjIuMzI4aC03LjAxM2MtLjE1Mi4wMDQtLjMwMy0uMDIzLS40NDQtLjA4cy0uMjY5LS4xNDItLjM3Ni0uMjUtLjE5My0uMjM1LS4yNS0uMzc2LS4wODQtLjI5Mi0uMDgtLjQ0NHYtMTEuNjdjMC0uMzY2LjExLS42NTcuMzMtLjg3Ny4xMDctLjEwOC4yMzYtLjE5My4zNzctLjI1cy4yOTMtLjA4NC40NDUtLjA4em0tNS44MDkgMi4zNTZ2OC4xNjNoNC42NTd2LTguMTY0eiIvPiYjeGE7PC9zdmc+;" vertex="1" parent="1">
          <mxGeometry x="656" y="784.0899999999999" width="48" height="40" as="geometry" />
        </mxCell>
        <mxCell id="jWsYO69XkJvmNmhxUWtM-10" value="" style="edgeStyle=none;endArrow=blockThin;verticalAlign=top;labelBackgroundColor=none;endSize=6;html=1;rounded=0;targetPerimeterSpacing=10;sourcePerimeterSpacing=30;endFill=1;strokeColor=#475E75;" edge="1" parent="1" source="jWsYO69XkJvmNmhxUWtM-8" target="jWsYO69XkJvmNmhxUWtM-9">
          <mxGeometry relative="1" as="geometry" />
        </mxCell>
        <mxCell id="jWsYO69XkJvmNmhxUWtM-11" value="" style="rounded=1;whiteSpace=wrap;html=1;strokeColor=#0070F2;strokeWidth=1.5;arcSize=16;fillColor=#FFFFFF;perimeterSpacing=0;absoluteArcSize=1;container=0;" vertex="1" parent="1">
          <mxGeometry x="798" y="848.0899999999999" width="320" height="156.91" as="geometry" />
        </mxCell>
        <mxCell id="jWsYO69XkJvmNmhxUWtM-12" value="SAP Cloud Identity Services" style="text;html=1;align=left;verticalAlign=middle;resizable=0;points=[];autosize=1;strokeColor=none;fillColor=none;fontSize=16;fontColor=#1A2733;fontFamily=Helvetica;fontStyle=1" vertex="1" parent="1">
          <mxGeometry x="866.3800000000001" y="868.5799999999999" width="218" height="31" as="geometry" />
        </mxCell>
        <mxCell id="jWsYO69XkJvmNmhxUWtM-13" value="&lt;font color=&quot;#188918&quot; size=&quot;1&quot;&gt;&lt;b style=&quot;&quot;&gt;Authenticate&lt;/b&gt;&lt;/font&gt;" style="rounded=1;whiteSpace=wrap;html=1;arcSize=50;strokeColor=#188918;fillColor=#f5fae5;fontColor=#266f3a;strokeWidth=1.5;" vertex="1" parent="1">
          <mxGeometry x="761.75" y="946.0899999999997" width="72" height="14.5" as="geometry" />
        </mxCell>
        <mxCell id="jWsYO69XkJvmNmhxUWtM-14" value="&lt;font color=&quot;#188918&quot; size=&quot;1&quot;&gt;&lt;b style=&quot;&quot;&gt;Trust&lt;/b&gt;&lt;/font&gt;" style="rounded=1;whiteSpace=wrap;html=1;arcSize=50;strokeColor=#188918;fillColor=#f5fae5;fontColor=#266f3a;strokeWidth=1.5;" vertex="1" parent="1">
          <mxGeometry x="761.75" y="970.5999999999999" width="72" height="14.5" as="geometry" />
        </mxCell>
        <mxCell id="jWsYO69XkJvmNmhxUWtM-15" value="&lt;font color=&quot;#475e75&quot; size=&quot;1&quot;&gt;&lt;b style=&quot;&quot;&gt;User&lt;/b&gt;&lt;/font&gt;" style="rounded=1;whiteSpace=wrap;html=1;arcSize=50;strokeColor=#475e75;fillColor=#f5f6f7;strokeWidth=1.5;" vertex="1" parent="1">
          <mxGeometry x="854.5" y="996.9999999999997" width="33" height="16" as="geometry" />
        </mxCell>
        <mxCell id="jWsYO69XkJvmNmhxUWtM-16" value="&lt;font color=&quot;#5d36ff&quot; size=&quot;1&quot;&gt;&lt;b style=&quot;&quot;&gt;Group&lt;/b&gt;&lt;/font&gt;" style="rounded=1;whiteSpace=wrap;html=1;arcSize=50;strokeColor=#5D36FF;fillColor=#f1ecff;strokeWidth=1.5;" vertex="1" parent="1">
          <mxGeometry x="903.25" y="996.9999999999997" width="61.25" height="16" as="geometry" />
        </mxCell>
        <mxCell id="jWsYO69XkJvmNmhxUWtM-17" value="&lt;font size=&quot;1&quot;&gt;&lt;b style=&quot;&quot;&gt;IAM&lt;/b&gt;&lt;/font&gt;" style="rounded=1;whiteSpace=wrap;html=1;arcSize=50;strokeColor=#475E75;fillColor=#E6E6E6;fontColor=#475E75;strokeWidth=1.5;" vertex="1" parent="1">
          <mxGeometry x="1003" y="842" width="72" height="14.5" as="geometry" />
        </mxCell>
        <mxCell id="jWsYO69XkJvmNmhxUWtM-18" style="edgeStyle=orthogonalEdgeStyle;rounded=0;orthogonalLoop=1;jettySize=auto;html=1;fontSize=18;strokeColor=#188918;fontFamily=Helvetica;fontColor=default;targetPerimeterSpacing=15;endSize=4;startSize=4;endArrow=blockThin;endFill=1;strokeWidth=1.5;startArrow=none;startFill=0;entryX=0.5;entryY=0;entryDx=0;entryDy=0;exitX=0;exitY=0.5;exitDx=0;exitDy=0;" edge="1" parent="1">
          <mxGeometry relative="1" as="geometry">
            <mxPoint x="679" y="1078" as="targetPoint" />
            <mxPoint x="761.75" y="977.8499999999999" as="sourcePoint" />
          </mxGeometry>
        </mxCell>
        <mxCell id="jWsYO69XkJvmNmhxUWtM-19" style="edgeStyle=orthogonalEdgeStyle;rounded=0;orthogonalLoop=1;jettySize=auto;html=1;fontSize=18;strokeColor=#188918;fontFamily=Helvetica;fontColor=default;targetPerimeterSpacing=15;endSize=4;startSize=4;endArrow=blockThin;endFill=1;strokeWidth=1.5;startArrow=none;startFill=0;entryX=0;entryY=0.5;entryDx=0;entryDy=0;" edge="1" parent="1">
          <mxGeometry relative="1" as="geometry">
            <mxPoint x="761.75" y="953.3399999999997" as="targetPoint" />
            <mxPoint x="679" y="865.0899999999999" as="sourcePoint" />
            <Array as="points">
              <mxPoint x="679" y="878.0899999999997" />
              <mxPoint x="679" y="953.0899999999997" />
            </Array>
          </mxGeometry>
        </mxCell>
        <mxCell id="jWsYO69XkJvmNmhxUWtM-20" style="edgeStyle=orthogonalEdgeStyle;rounded=0;orthogonalLoop=1;jettySize=auto;html=1;fontSize=18;strokeColor=#475E75;fontFamily=Helvetica;fontColor=default;targetPerimeterSpacing=15;endSize=4;startSize=4;endArrow=blockThin;endFill=1;strokeWidth=1.5;startArrow=none;startFill=0;entryX=0.5;entryY=1;entryDx=0;entryDy=0;exitX=1;exitY=0.25;exitDx=0;exitDy=0;" edge="1" parent="1" target="jWsYO69XkJvmNmhxUWtM-15">
          <mxGeometry relative="1" as="geometry">
            <mxPoint x="974.9950000000001" y="1078.0739999999998" as="targetPoint" />
            <mxPoint x="704" y="1091" as="sourcePoint" />
            <Array as="points">
              <mxPoint x="871" y="1091" />
            </Array>
          </mxGeometry>
        </mxCell>
        <mxCell id="jWsYO69XkJvmNmhxUWtM-21" style="edgeStyle=orthogonalEdgeStyle;rounded=0;orthogonalLoop=1;jettySize=auto;html=1;fontSize=18;strokeColor=#5D36FF;fontFamily=Helvetica;fontColor=default;targetPerimeterSpacing=15;endSize=4;startSize=4;endArrow=none;endFill=1;strokeWidth=1.5;startArrow=none;startFill=0;entryX=0.5;entryY=1;entryDx=0;entryDy=0;exitX=1;exitY=0.5;exitDx=0;exitDy=0;" edge="1" parent="1" target="jWsYO69XkJvmNmhxUWtM-16">
          <mxGeometry relative="1" as="geometry">
            <mxPoint x="1037.0075" y="1078.0579999999995" as="targetPoint" />
            <mxPoint x="704" y="1103" as="sourcePoint" />
            <Array as="points">
              <mxPoint x="934" y="1103" />
            </Array>
          </mxGeometry>
        </mxCell>
        <mxCell id="jWsYO69XkJvmNmhxUWtM-22" value="" style="group" vertex="1" connectable="0" parent="1">
          <mxGeometry x="582" y="1202" width="655" height="95" as="geometry" />
        </mxCell>
        <mxCell id="jWsYO69XkJvmNmhxUWtM-23" value="&lt;font face=&quot;arial&quot;&gt;&lt;b&gt;Recommended usage of SAP Cloud Identity Services for SAP Joule&lt;/b&gt;&lt;/font&gt;" style="text;html=1;align=left;verticalAlign=middle;resizable=0;points=[];autosize=1;strokeColor=none;fillColor=none;fontSize=12;fontColor=#1D2D3E;fontFamily=Helvetica;" vertex="1" parent="jWsYO69XkJvmNmhxUWtM-22">
          <mxGeometry y="-5.890784982935154" width="410" height="30" as="geometry" />
        </mxCell>
        <UserObject label="&lt;span style=&quot;color: rgb(31, 35, 40); font-family: -apple-system, &amp;quot;system-ui&amp;quot;, &amp;quot;Segoe UI&amp;quot;, &amp;quot;Noto Sans&amp;quot;, Helvetica, Arial, sans-serif, &amp;quot;Apple Color Emoji&amp;quot;, &amp;quot;Segoe UI Emoji&amp;quot;; font-size: 16px; background-color: rgb(255, 255, 255);&quot;&gt;The diagram shows the major parts of a SAP Joule integration from IAM perspective.&lt;/span&gt;" placeholders="1" name="Variable" id="jWsYO69XkJvmNmhxUWtM-24">
          <mxCell style="text;html=1;strokeColor=none;fillColor=none;align=left;verticalAlign=middle;whiteSpace=wrap;overflow=hidden;fontColor=#1D2D3E;" vertex="1" parent="jWsYO69XkJvmNmhxUWtM-22">
            <mxGeometry y="32.423208191126285" width="653" height="62.57679180887373" as="geometry" />
          </mxCell>
        </UserObject>
        <mxCell id="jWsYO69XkJvmNmhxUWtM-25" value="&lt;b style=&quot;border-color: var(--border-color); color: rgb(0, 112, 242); font-size: 16px;&quot;&gt;SAP IAM integration flows with SAP Joule L0&amp;nbsp;&lt;b style=&quot;border-color: var(--border-color); font-family: arial;&quot;&gt;- Solution Diagram&lt;/b&gt;&lt;br&gt;&lt;/b&gt;" style="text;html=1;align=left;verticalAlign=middle;resizable=0;points=[];autosize=1;strokeColor=none;fillColor=none;fontSize=12;fontColor=#1d2d3e;fontFamily=Helvetica;" vertex="1" parent="1">
          <mxGeometry x="580" y="495.0000000000002" width="506" height="31" as="geometry" />
        </mxCell>
        <mxCell id="jWsYO69XkJvmNmhxUWtM-26" value="" style="group" vertex="1" connectable="0" parent="1">
          <mxGeometry x="1343" y="1197" width="323" height="116" as="geometry" />
        </mxCell>
        <mxCell id="jWsYO69XkJvmNmhxUWtM-27" value="&lt;font face=&quot;Arial&quot; color=&quot;#1a2733&quot;&gt;&lt;b&gt;&amp;nbsp;&lt;/b&gt;&lt;/font&gt;" style="text;html=1;align=center;verticalAlign=middle;resizable=0;points=[];autosize=1;strokeColor=none;fillColor=none;fontSize=16;fontFamily=Helvetica;fontColor=default;" vertex="1" parent="jWsYO69XkJvmNmhxUWtM-26">
          <mxGeometry x="158.00000000000023" y="19" width="30" height="30" as="geometry" />
        </mxCell>
        <mxCell id="jWsYO69XkJvmNmhxUWtM-28" value="" style="rounded=0;whiteSpace=wrap;html=1;strokeColor=#eaecee;strokeWidth=1.5;arcSize=16;fillColor=#FFFFFF;perimeterSpacing=0;imageHeight=24;absoluteArcSize=1;points=[];connectable=0;container=0;" vertex="1" parent="jWsYO69XkJvmNmhxUWtM-26">
          <mxGeometry width="323" height="116" as="geometry" />
        </mxCell>
        <mxCell id="jWsYO69XkJvmNmhxUWtM-29" value="&lt;font size=&quot;1&quot; style=&quot;&quot; face=&quot;arial&quot; color=&quot;#1d2d3e&quot;&gt;&lt;b style=&quot;font-size: 12px;&quot;&gt;Legend&lt;/b&gt;&lt;/font&gt;" style="text;html=1;align=left;verticalAlign=top;resizable=0;points=[];autosize=1;strokeColor=none;fillColor=none;fontSize=12;fontColor=default;fontFamily=Helvetica;" vertex="1" parent="jWsYO69XkJvmNmhxUWtM-26">
          <mxGeometry x="20.9982051282052" y="9" width="61" height="26" as="geometry" />
        </mxCell>
        <mxCell id="jWsYO69XkJvmNmhxUWtM-30" value="&lt;div style=&quot;font-size: 10px; line-height: 100%;&quot;&gt;&lt;span style=&quot;font-family: arial; font-size: 10px; background-color: initial;&quot;&gt;&lt;font style=&quot;font-size: 10px;&quot;&gt;Identity &lt;br&gt;Lifecycle&lt;/font&gt;&lt;/span&gt;&lt;/div&gt;" style="text;html=1;align=left;verticalAlign=middle;resizable=0;points=[];autosize=1;strokeColor=none;fillColor=none;fontSize=10;fontColor=#1D2D3E;fontFamily=Helvetica;labelPosition=center;verticalLabelPosition=middle;" vertex="1" parent="jWsYO69XkJvmNmhxUWtM-26">
          <mxGeometry x="39.86999999999989" y="49.5" width="57" height="34" as="geometry" />
        </mxCell>
        <mxCell id="jWsYO69XkJvmNmhxUWtM-31" value="" style="ellipse;whiteSpace=wrap;html=1;aspect=fixed;strokeColor=none;fillColor=#475E75;fontColor=#475E75;" vertex="1" parent="jWsYO69XkJvmNmhxUWtM-26">
          <mxGeometry x="21.36999999999989" y="59" width="16" height="16" as="geometry" />
        </mxCell>
        <mxCell id="jWsYO69XkJvmNmhxUWtM-32" value="" style="ellipse;whiteSpace=wrap;html=1;aspect=fixed;strokeColor=none;fillColor=#7F00FF;fontColor=#475E75;" vertex="1" parent="jWsYO69XkJvmNmhxUWtM-26">
          <mxGeometry x="21.36999999999989" y="37.5" width="16" height="16" as="geometry" />
        </mxCell>
        <mxCell id="jWsYO69XkJvmNmhxUWtM-33" value="&lt;div style=&quot;font-size: 10px; line-height: 100%;&quot;&gt;&lt;span style=&quot;font-family: arial; font-size: 10px; background-color: initial;&quot;&gt;&lt;font style=&quot;font-size: 10px;&quot;&gt;Authorization&lt;/font&gt;&lt;/span&gt;&lt;/div&gt;" style="text;html=1;align=left;verticalAlign=middle;resizable=0;points=[];autosize=1;strokeColor=none;fillColor=none;fontSize=10;fontColor=#1D2D3E;fontFamily=Helvetica;labelPosition=center;verticalLabelPosition=middle;" vertex="1" parent="jWsYO69XkJvmNmhxUWtM-26">
          <mxGeometry x="39.86999999999989" y="33" width="76" height="23" as="geometry" />
        </mxCell>
        <mxCell id="jWsYO69XkJvmNmhxUWtM-34" value="" style="shape=image;verticalLabelPosition=bottom;verticalAlign=top;imageAspect=0;aspect=fixed;image=data:image/svg+xml,PHN2ZyB4bWxucz0iaHR0cDovL3d3dy53My5vcmcvMjAwMC9zdmciIGZpbGw9Im5vbmUiIHZpZXdCb3g9IjAgMCA0OSA0OSIgaGVpZ2h0PSI0OSIgd2lkdGg9IjQ5Ij4mI3hhOzxjaXJjbGUgc3Ryb2tlLXdpZHRoPSIwLjg1NzE0MyIgc3Ryb2tlPSIjRDVEQUREIiBmaWxsPSJ1cmwoI3BhaW50MF9saW5lYXJfMjYyMl8yMDQ3NSkiIHI9IjIzLjU3MTQiIGN5PSIyNC4wMzQ5IiBjeD0iMjQuNSIvPiYjeGE7PHBhdGggZmlsbD0idXJsKCNwYWludDFfcmFkaWFsXzI2MjJfMjA0NzUpIiBkPSJNMjQuMzkzMSAxMi4yMzcxQzIwLjExMDcgMTIuMjM3MSAxNy4wNjgxIDE1LjcyMzEgMTYuNTYxMSAxOS4zNjI1QzE1LjE4MzYgMTkuNDQ0NCAxMy45NjcyIDE5Ljk2MjEgMTMuMDIyNSAyMC44MzE3QzExLjc0NDUgMjIuMDA4MSAxMS4wODQ0IDIzLjcxNTYgMTEuMDg0NCAyNS41MTYzQzExLjA4NDQgMjcuMTg5NyAxMS41OTIgMjguNzcxNSAxMi43MzE2IDI5Ljk0MDlDMTMuNTg2MSAzMC44MTc4IDE0LjcwNzcgMzEuMzcyNCAxNi4wMTcgMzEuNTk4NEMxNi4xMzc2IDMxLjM1MzUgMTYuMjczNSAzMS4xMTY4IDE2LjQyNTIgMzAuODg5MkwxNi40NDEgMzAuODY1NUwxNi40NTQ4IDMwLjg0NjFDMTYuNzA2OSAzMC40OTAxIDE2Ljk5NDggMzAuMTY2IDE3LjMxNjkgMjkuODc2MUMxNy4xODMxIDI5LjQzMTcgMTcuMTE4IDI4Ljk2NDUgMTcuMTE4IDI4LjQ4MzVDMTcuMTE4IDI3Ljg1NDkgMTcuMjM4NiAyNy4yNDEzIDE3LjQ4NDkgMjYuNjU5MkMxNy43MiAyNi4xMDMzIDE4LjA1MTMgMjUuNjAwMSAxOC40ODI0IDI1LjE2OTFDMTguOTE4IDI0LjczMzQgMTkuNDI1IDI0LjM5MTYgMTkuOTkyNiAyNC4xNTE1QzIwLjU3NDcgMjMuOTA1MiAyMS4xODgyIDIzLjc4NDYgMjEuODE2OCAyMy43ODQ2QzIyLjA3NTkgMjMuNzg0NiAyMi4zMzI0IDIzLjgwNTEgMjIuNTg1MyAyMy44NDY0QzIyLjkwNjUgMjMuNjE3OSAyMy4yNTIyIDIzLjQyNTEgMjMuNjIwNCAyMy4yNjkzQzI0LjI4NTEgMjIuOTg4MSAyNC45ODYzIDIyLjg0OTcgMjUuNzA4OSAyMi44NDk3QzI2LjQzMTYgMjIuODQ5NyAyNy4xMzI3IDIyLjk4ODEgMjcuNzk3NSAyMy4yNjkzQzI4LjQ0MzYgMjMuNTQyNyAyOS4wMTc2IDIzLjkzMjYgMjkuNTA0MyAyNC40MzY1QzMwLjAwODIgMjQuOTIzMiAzMC4zOTgxIDI1LjQ5NzIgMzAuNjcxNSAyNi4xNDMzQzMwLjk1MjcgMjYuODA4MSAzMS4wOTExIDI3LjUwOTMgMzEuMDkxMSAyOC4yMzE5QzMxLjA5MTEgMjguOTI1MiAzMC45NjM3IDI5LjU5ODggMzAuNzA1IDMwLjIzOTVDMzEuMTk2OSAzMC42Mjg4IDMxLjYzNDYgMzEuMDg3NyAzMi4wMTUyIDMxLjYxMjdDMzUuMjc5MiAzMS4wNDI2IDM3Ljk5OTkgMjguMzY4IDM3Ljk5OTkgMjQuMzU5MUMzNy45OTk5IDIwLjM3NTEgMzUuMTUyNiAxNy4zMTM1IDMxLjcyNDcgMTYuOTg5N0MzMC4zNTA3IDE0LjE0ODMgMjcuOCAxMi4yMzcxIDI0LjM5MzEgMTIuMjM3MVoiIGNsaXAtcnVsZT0iZXZlbm9kZCIgZmlsbC1ydWxlPSJldmVub2RkIi8+JiN4YTs8cGF0aCBmaWxsPSJ1cmwoI3BhaW50Ml9yYWRpYWxfMjYyMl8yMDQ3NSkiIGQ9Ik0yOC4zMzY4IDMwLjgwNzhDMjkuMzA4MiAzMS4xODk0IDMwLjA5NzQgMzEuODEzOCAzMC43MDQ1IDMyLjY4MTFDMzEuMzExNiAzMy41NDg0IDMxLjYxNTIgMzQuNTI4NSAzMS42MTUyIDM1LjYyMTNWMzcuMTA0NEMzMS42MTUyIDM3LjMxMjUgMzEuNTM3MSAzNy40ODYgMzEuMzgxIDM3LjYyNDdDMzEuMjQyMiAzNy43NjM1IDMxLjA3NzQgMzcuODMyOSAzMC44ODY2IDM3LjgzMjlIMjkuNDAzNkMyOS4xOTU0IDM3LjgzMjkgMjkuMDEzMyAzNy43NjM1IDI4Ljg1NzIgMzcuNjI0N0MyOC43MTg0IDM3LjQ4NiAyOC42NDkgMzcuMzEyNSAyOC42NDkgMzcuMTA0NEMyOC42NDkgMzYuODk2MiAyOC43MTg0IDM2LjcyMjcgMjguODU3MiAzNi41ODRDMjkuMDEzMyAzNi40Mjc5IDI5LjE5NTQgMzYuMzQ5OCAyOS40MDM2IDM2LjM0OThIMzAuMTMyMVYzNS42MjEzQzMwLjEzMjEgMzUuMTE4MiAzMC4wMzY3IDM0LjY0MTIgMjkuODQ1OSAzNC4xOTAyQzI5LjY1NTEgMzMuNzM5MiAyOS4zODYyIDMzLjM0OSAyOS4wMzkzIDMzLjAxOTRDMjguNzA5NyAzMi42NzI1IDI4LjMxOTUgMzIuNDAzNiAyNy44Njg1IDMyLjIxMjhDMjcuNDM0OCAzMi4wMjIgMjYuOTU3OCAzMS45MjY2IDI2LjQzNzUgMzEuOTI2NkgyNC45ODA0QzI0LjQ2IDMxLjkyNjYgMjMuOTc0NCAzMi4wMjIgMjMuNTIzNCAzMi4yMTI4QzIzLjA4OTcgMzIuNDAzNiAyMi42OTk0IDMyLjY3MjUgMjIuMzUyNSAzMy4wMTk0QzIyLjAyMyAzMy4zNDkgMjEuNzYyOCAzMy43MzkyIDIxLjU3MiAzNC4xOTAyQzIxLjM4MTIgMzQuNjQxMiAyMS4yODU4IDM1LjExODIgMjEuMjg1OCAzNS42MjEzVjM2LjM0OThIMjIuMDE0M0MyMi4yMjI0IDM2LjM0OTggMjIuMzk1OSAzNi40Mjc5IDIyLjUzNDcgMzYuNTg0QzIyLjY3MzQgMzYuNzIyNyAyMi43NDI4IDM2Ljg5NjIgMjIuNzQyOCAzNy4xMDQ0QzIyLjc0MjggMzcuMzEyNSAyMi42NzM0IDM3LjQ4NiAyMi41MzQ3IDM3LjYyNDdDMjIuMzk1OSAzNy43NjM1IDIyLjIyMjQgMzcuODMyOSAyMi4wMTQzIDM3LjgzMjlIMjAuNTMxMkMyMC4zNDA0IDM3LjgzMjkgMjAuMTY3IDM3Ljc2MzUgMjAuMDEwOSAzNy42MjQ3QzE5Ljg3MjEgMzcuNDg2IDE5LjgwMjcgMzcuMzEyNSAxOS44MDI3IDM3LjEwNDRMMTkuODAyNyAzNi4wNTAySDE3LjgyMzRDMTcuNjMyOCAzNi4wNTAyIDE3LjQ2MTYgMzUuOTc5NSAxNy4zMTQ2IDM1Ljg0ODhMMTcuMzA3NSAzNS44NDI1QzE3LjE2ODEgMzUuNzAzMSAxNy4wOTk4IDM1LjUyNzEgMTcuMDk5OCAzNS4zMjY1VjM0LjE4MjdDMTcuMDk5OCAzMy43MzkyIDE3LjE2MjEgMzMuMzIxIDE3LjI4ODEgMzIuOTI5MUwxNy4yODkyIDMyLjkyNTlDMTcuNDI3MiAzMi41MjU2IDE3LjYwNzEgMzIuMTU4NiAxNy44MjkzIDMxLjgyNTNMMTcuODMxOCAzMS44MjE1QzE4LjA2NzggMzEuNDg4MyAxOC4zNDU4IDMxLjE5NjQgMTguNjY1MiAzMC45NDYxQzE4LjkyNDIgMzAuNzMyNCAxOS4yMDU5IDMwLjU1NSAxOS41MTAxIDMwLjQxNEMxOS4wMzk4IDI5Ljg4ODUgMTguODA1NSAyOS4yNDE5IDE4LjgwNTUgMjguNDgzNUMxOC44MDU1IDI4LjA3NDUgMTguODgzMiAyNy42ODUxIDE5LjAzOSAyNy4zMTY3QzE5LjE5MzkgMjYuOTUwNyAxOS40MDYgMjYuNjMyIDE5LjY3NTYgMjYuMzYyM0MxOS45NTc5IDI2LjA4MDEgMjAuMjgzIDI1Ljg2MDkgMjAuNjUwMSAyNS43MDU2QzIxLjAxODQgMjUuNTQ5OCAyMS40MDc4IDI1LjQ3MjEgMjEuODE2OCAyNS40NzIxQzIyLjIyNTkgMjUuNDcyMSAyMi42MTUyIDI1LjU0OTggMjIuOTgzNiAyNS43MDU2TDIzLjAwMDggMjUuNzEzQzIzLjAyNzEgMjUuNjg0OSAyMy4wNTM4IDI1LjY1NzMgMjMuMDgxIDI1LjYzQzIzLjQyOCAyNS4yODMxIDIzLjgyNjkgMjUuMDE0MiAyNC4yNzc5IDI0LjgyMzRDMjQuNzI4OSAyNC42MzI2IDI1LjIwNTkgMjQuNTM3MiAyNS43MDg5IDI0LjUzNzJDMjYuMjEyIDI0LjUzNzIgMjYuNjg5IDI0LjYzMjYgMjcuMTQgMjQuODIzNEMyNy41OTA5IDI1LjAxNDIgMjcuOTgxMiAyNS4yODMxIDI4LjMxMDggMjUuNjNDMjguNjU3NyAyNS45NTk2IDI4LjkyNjYgMjYuMzQ5OSAyOS4xMTc0IDI2LjgwMDlDMjkuMzA4MiAyNy4yNTE5IDI5LjQwMzYgMjcuNzI4OSAyOS40MDM2IDI4LjIzMTlDMjkuNDAzNiAyOC43MzQ5IDI5LjMwODIgMjkuMjEyIDI5LjExNzQgMjkuNjYzQzI4LjkyNjYgMzAuMDk2NiAyOC42NjY0IDMwLjQ3ODIgMjguMzM2OCAzMC44MDc4Wk0yMC4wMzY5IDM0LjA2MDFDMTkuOTgyMiAzNC4yMzAxIDE5LjkzNzIgMzQuNDA0MyAxOS45MDE3IDM0LjU4MjdIMTguNTY3MlYzNC4xODI3QzE4LjU2NzIgMzMuODE1NyAxOC42MzY3IDMzLjQ2OTMgMTguNzc1MiAzMy4xNDJDMTguOTE0NiAzMi44MTI0IDE5LjEwMzkgMzIuNTI5IDE5LjM0MjYgMzIuMjkwM0MxOS41OTYyIDMyLjAzNjcgMTkuODgwMyAzMS44NDEyIDIwLjE5NTMgMzEuNzAyNEMyMC41MjE2IDMxLjU2NDUgMjAuODc0MyAzMS40OTQ5IDIxLjI1NDkgMzEuNDk0OUgyMS44NzA4QzIxLjgzMTUgMzEuNTI1NCAyMS43OTI2IDMxLjU1NjYgMjEuNzU0MSAzMS41ODg0QzIxLjM1NTEgMzEuOTAwNiAyMS4wMDgyIDMyLjI2NDggMjAuNzEzNCAzMi42ODExQzIwLjQzNTggMzMuMDk3NCAyMC4yMTAzIDMzLjU1NzEgMjAuMDM2OSAzNC4wNjAxWk0yNS43MDg5IDI2LjAyMDNDMjUuMTAxOCAyNi4wMjAzIDI0LjU4MTUgMjYuMjM3MSAyNC4xNDc4IDI2LjY3MDhDMjMuNzE0MiAyNy4xMDQ0IDIzLjQ5NzMgMjcuNjI0OCAyMy40OTczIDI4LjIzMTlDMjMuNDk3MyAyOC44MzkgMjMuNzE0MiAyOS4zNTk0IDI0LjE0NzggMjkuNzkzQzI0LjU4MTUgMzAuMjI2NyAyNS4xMDE4IDMwLjQ0MzUgMjUuNzA4OSAzMC40NDM1QzI2LjMxNiAzMC40NDM1IDI2LjgzNjQgMzAuMjI2NyAyNy4yNyAyOS43OTNDMjcuNzAzNyAyOS4zNTk0IDI3LjkyMDUgMjguODM5IDI3LjkyMDUgMjguMjMxOUMyNy45MjA1IDI3LjYyNDggMjcuNzAzNyAyNy4xMDQ0IDI3LjI3IDI2LjY3MDhDMjYuODM2NCAyNi4yMzcxIDI2LjMxNiAyNi4wMjAzIDI1LjcwODkgMjYuMDIwM1pNMjIuMDE0MyAyOC4yMzE5QzIyLjAxNDMgMjguODU5NiAyMi4xNDM2IDI5LjQyMTEgMjIuNDAyMyAyOS45MTYzQzIyLjIyMjMgMjkuOTkwNiAyMi4wMjc1IDMwLjAyNzQgMjEuODE2OCAzMC4wMjc0QzIxLjM5MiAzMC4wMjc0IDIxLjAzMTcgMjkuODc3NiAyMC43MjcyIDI5LjU3MzFDMjAuNDIyOCAyOS4yNjg3IDIwLjI3MjkgMjguOTA4MyAyMC4yNzI5IDI4LjQ4MzVDMjAuMjcyOSAyOC4wNTg3IDIwLjQyMjggMjcuNjk4MyAyMC43MjcyIDI3LjM5MzlDMjEuMDMxNyAyNy4wODk0IDIxLjM5MiAyNi45Mzk2IDIxLjgxNjggMjYuOTM5NkMyMS45NjA1IDI2LjkzOTYgMjIuMDk2OSAyNi45NTY3IDIyLjIyNjIgMjYuOTkxMkMyMi4wODQ5IDI3LjM4NTUgMjIuMDE0MyAyNy43OTkxIDIyLjAxNDMgMjguMjMxOVoiIGNsaXAtcnVsZT0iZXZlbm9kZCIgZmlsbC1ydWxlPSJldmVub2RkIi8+JiN4YTs8ZGVmcz4mI3hhOzxsaW5lYXJHcmFkaWVudCBncmFkaWVudFVuaXRzPSJ1c2VyU3BhY2VPblVzZSIgeTI9IjQ0LjI3OTIiIHgyPSI0MS41NjQ1IiB5MT0iNi44NDc3NSIgeDE9IjQuODUyODciIGlkPSJwYWludDBfbGluZWFyXzI2MjJfMjA0NzUiPiYjeGE7PHN0b3Agc3RvcC1jb2xvcj0id2hpdGUiLz4mI3hhOzxzdG9wIHN0b3AtY29sb3I9IiNFQUVDRUUiIG9mZnNldD0iMSIvPiYjeGE7PC9saW5lYXJHcmFkaWVudD4mI3hhOzxyYWRpYWxHcmFkaWVudCBncmFkaWVudFRyYW5zZm9ybT0idHJhbnNsYXRlKDE1LjI1ODMgMTUuOTk1NCkgcm90YXRlKDQzLjg3NzkpIHNjYWxlKDI1Ljg1MjQgNDguODExNykiIGdyYWRpZW50VW5pdHM9InVzZXJTcGFjZU9uVXNlIiByPSIxIiBjeT0iMCIgY3g9IjAiIGlkPSJwYWludDFfcmFkaWFsXzI2MjJfMjA0NzUiPiYjeGE7PHN0b3Agc3RvcC1jb2xvcj0iIzAxOTVGRiIvPiYjeGE7PHN0b3Agc3RvcC1jb2xvcj0iIzExNDdFOSIgb2Zmc2V0PSIxIi8+JiN4YTs8L3JhZGlhbEdyYWRpZW50PiYjeGE7PHJhZGlhbEdyYWRpZW50IGdyYWRpZW50VHJhbnNmb3JtPSJ0cmFuc2xhdGUoMTUuMjUyMiAxNi4wODc2KSByb3RhdGUoNDMuNTYwMikgc2NhbGUoMjUuODcyNyAyMy41NDcxKSIgZ3JhZGllbnRVbml0cz0idXNlclNwYWNlT25Vc2UiIHI9IjEiIGN5PSIwIiBjeD0iMCIgaWQ9InBhaW50Ml9yYWRpYWxfMjYyMl8yMDQ3NSI+JiN4YTs8c3RvcCBzdG9wLWNvbG9yPSIjMTM0OEZGIi8+JiN4YTs8c3RvcCBzdG9wLWNvbG9yPSIjMDYyMzhEIiBvZmZzZXQ9IjEiLz4mI3hhOzwvcmFkaWFsR3JhZGllbnQ+JiN4YTs8L2RlZnM+JiN4YTs8L3N2Zz4=;points=[[0,0,0,0,0],[0,0.25,0,0,0],[0,0.5,0,0,0],[0,0.75,0,0,0],[0.25,0,0,0,0],[0.5,0,0,0,0],[0.75,0,0,0,0],[1,0,0,0,0],[1,0.25,0,0,0],[1,0.5,0,0,0],[1,0.75,0,0,0]];" vertex="1" parent="jWsYO69XkJvmNmhxUWtM-26">
          <mxGeometry x="117" y="37.5" width="16" height="16" as="geometry" />
        </mxCell>
        <mxCell id="jWsYO69XkJvmNmhxUWtM-35" value="&lt;div style=&quot;font-size: 10px; line-height: 100%;&quot;&gt;&lt;span style=&quot;font-family: arial; font-size: 10px; background-color: initial;&quot;&gt;&lt;font style=&quot;font-size: 10px;&quot;&gt;Service&lt;/font&gt;&lt;/span&gt;&lt;/div&gt;" style="text;html=1;align=left;verticalAlign=middle;resizable=0;points=[];autosize=1;strokeColor=none;fillColor=none;fontSize=10;fontColor=#1D2D3E;fontFamily=Helvetica;labelPosition=center;verticalLabelPosition=middle;" vertex="1" parent="jWsYO69XkJvmNmhxUWtM-26">
          <mxGeometry x="142" y="33" width="51" height="23" as="geometry" />
        </mxCell>
        <mxCell id="jWsYO69XkJvmNmhxUWtM-36" value="" style="endArrow=none;html=1;strokeColor=#4628ec;bendable=1;rounded=0;endFill=0;endSize=3;strokeWidth=1.5;" edge="1" parent="jWsYO69XkJvmNmhxUWtM-26">
          <mxGeometry width="50" height="50" relative="1" as="geometry">
            <mxPoint x="136.12000000000012" y="67.47000000000003" as="sourcePoint" />
            <mxPoint x="115.12000000000012" y="67.47000000000003" as="targetPoint" />
            <Array as="points" />
          </mxGeometry>
        </mxCell>
        <mxCell id="jWsYO69XkJvmNmhxUWtM-37" value="&lt;div style=&quot;font-size: 10px; line-height: 100%;&quot;&gt;&lt;span style=&quot;font-family: arial; font-size: 10px; background-color: initial;&quot;&gt;&lt;font style=&quot;font-size: 10px;&quot;&gt;Data Flow&lt;/font&gt;&lt;/span&gt;&lt;/div&gt;" style="text;html=1;align=left;verticalAlign=middle;resizable=0;points=[];autosize=1;strokeColor=none;fillColor=none;fontSize=10;fontColor=#1D2D3E;fontFamily=Helvetica;labelPosition=center;verticalLabelPosition=middle;" vertex="1" parent="jWsYO69XkJvmNmhxUWtM-26">
          <mxGeometry x="142.00000000000023" y="54.5" width="63" height="23" as="geometry" />
        </mxCell>
        <mxCell id="jWsYO69XkJvmNmhxUWtM-38" value="" style="edgeStyle=orthogonalEdgeStyle;rounded=0;orthogonalLoop=1;jettySize=auto;html=1;endArrow=blockThin;endFill=1;strokeColor=#475e74;endSize=4;startSize=4;strokeWidth=1.5;startArrow=blockThin;startFill=1;" edge="1" parent="jWsYO69XkJvmNmhxUWtM-26">
          <mxGeometry relative="1" as="geometry">
            <mxPoint x="209" y="44.42000000000007" as="targetPoint" />
            <mxPoint x="233" y="44.42000000000007" as="sourcePoint" />
          </mxGeometry>
        </mxCell>
        <mxCell id="jWsYO69XkJvmNmhxUWtM-39" value="&lt;div style=&quot;font-size: 10px; line-height: 100%;&quot;&gt;&lt;span style=&quot;font-family: arial; font-size: 10px; background-color: initial;&quot;&gt;&lt;font style=&quot;font-size: 10px;&quot;&gt;Mutual Trust&lt;/font&gt;&lt;/span&gt;&lt;/div&gt;" style="text;html=1;align=left;verticalAlign=middle;resizable=0;points=[];autosize=1;strokeColor=none;fillColor=none;fontSize=10;fontColor=#1D2D3E;fontFamily=Helvetica;labelPosition=center;verticalLabelPosition=middle;" vertex="1" parent="jWsYO69XkJvmNmhxUWtM-26">
          <mxGeometry x="238.00000000000023" y="31.5" width="73" height="23" as="geometry" />
        </mxCell>
        <mxCell id="jWsYO69XkJvmNmhxUWtM-40" value="" style="ellipse;whiteSpace=wrap;html=1;aspect=fixed;strokeColor=none;fillColor=#188918;" vertex="1" parent="jWsYO69XkJvmNmhxUWtM-26">
          <mxGeometry x="21.36999999999989" y="82" width="16" height="16" as="geometry" />
        </mxCell>
        <mxCell id="jWsYO69XkJvmNmhxUWtM-41" value="&lt;div style=&quot;font-size: 10px; line-height: 100%;&quot;&gt;&lt;span style=&quot;font-family: arial; font-size: 10px; background-color: initial;&quot;&gt;&lt;font style=&quot;font-size: 10px;&quot;&gt;Authentication&lt;/font&gt;&lt;/span&gt;&lt;/div&gt;" style="text;html=1;align=left;verticalAlign=middle;resizable=0;points=[];autosize=1;strokeColor=none;fillColor=none;fontSize=10;fontColor=#1D2D3E;fontFamily=Helvetica;labelPosition=center;verticalLabelPosition=middle;" vertex="1" parent="jWsYO69XkJvmNmhxUWtM-26">
          <mxGeometry x="39.86999999999989" y="77.5" width="81" height="23" as="geometry" />
        </mxCell>
        <mxCell id="jWsYO69XkJvmNmhxUWtM-42" value="" style="edgeStyle=orthogonalEdgeStyle;rounded=0;orthogonalLoop=1;jettySize=auto;html=1;endArrow=blockThin;endFill=1;strokeColor=#475e74;endSize=4;startSize=4;strokeWidth=1.5;entryX=-0.004;entryY=0.481;entryDx=0;entryDy=0;exitX=1;exitY=0.5;exitDx=0;exitDy=0;entryPerimeter=0;" edge="1" parent="1" source="jWsYO69XkJvmNmhxUWtM-9" target="jWsYO69XkJvmNmhxUWtM-52">
          <mxGeometry relative="1" as="geometry">
            <mxPoint x="796" y="636" as="targetPoint" />
            <mxPoint x="790" y="850" as="sourcePoint" />
          </mxGeometry>
        </mxCell>
        <mxCell id="jWsYO69XkJvmNmhxUWtM-43" value="use" style="edgeLabel;html=1;align=center;verticalAlign=middle;resizable=0;points=[];" vertex="1" connectable="0" parent="jWsYO69XkJvmNmhxUWtM-42">
          <mxGeometry x="0.1512" y="1" relative="1" as="geometry">
            <mxPoint as="offset" />
          </mxGeometry>
        </mxCell>
        <mxCell id="jWsYO69XkJvmNmhxUWtM-44" value="" style="strokeColor=#0070F2;shadow=0;strokeWidth=2;rounded=1;absoluteArcSize=1;arcSize=20;container=0;" vertex="1" parent="1">
          <mxGeometry x="1464" y="557" width="189" height="220" as="geometry" />
        </mxCell>
        <mxCell id="jWsYO69XkJvmNmhxUWtM-45" value="*check SAP Help portal for list of supported solutions for manual integration or as content channel" style="strokeColor=#0070F2;shadow=0;strokeWidth=2;rounded=1;absoluteArcSize=1;arcSize=20;whiteSpace=wrap;verticalAlign=bottom;spacing=10;fontSize=10;fontColor=#556B82;align=left;container=0;" vertex="1" parent="1">
          <mxGeometry x="1464" y="792" width="190" height="303" as="geometry" />
        </mxCell>
        <mxCell id="jWsYO69XkJvmNmhxUWtM-46" value="NETWORK" style="text;html=1;align=left;verticalAlign=middle;resizable=0;points=[];autosize=1;strokeColor=none;fillColor=none;fontSize=14;fontStyle=1;fontColor=#5B738B;" vertex="1" parent="1">
          <mxGeometry x="1435" y="522" width="100" height="30" as="geometry" />
        </mxCell>
        <mxCell id="jWsYO69XkJvmNmhxUWtM-47" value="" style="shape=image;editableCssRules=.*;part=1;verticalLabelPosition=bottom;labelBackgroundColor=none;verticalAlign=top;aspect=fixed;imageAspect=0;image=data:image/svg+xml,PHN2ZyB4bWxucz0iaHR0cDovL3d3dy53My5vcmcvMjAwMC9zdmciIHZpZXdCb3g9Ii0wLjUgLTAuNSAyNi4wODQgMjgiIGhlaWdodD0iMjgiIHdpZHRoPSIyNi4wODQiPiYjeGE7CSAgPHN0eWxlIHR5cGU9InRleHQvY3NzIj4uc3QwIHsgc3RvcC1jb2xvcjogcmdiKDM1LCAxNDksIDI1NSk7IH0gLnN0MSB7IHN0b3AtY29sb3I6IHJnYigwLCA4NywgMjEwKTsgfSA8L3N0eWxlPiYjeGE7CTxkZWZzPiYjeGE7CQk8bGluZWFyR3JhZGllbnQgZ3JhZGllbnRVbml0cz0idXNlclNwYWNlT25Vc2UiIHkyPSIyMy43OTIiIHgyPSIyMy4yNTYiIHkxPSIzLjQ3NCIgeDE9IjEuODY1IiBpZD0iQSI+JiN4YTsJCQk8c3RvcCBjbGFzcz0ic3QwIi8+JiN4YTsJCQk8c3RvcCBjbGFzcz0ic3QxIiBvZmZzZXQ9IjEiLz4mI3hhOwkJPC9saW5lYXJHcmFkaWVudD4mI3hhOwk8L2RlZnM+JiN4YTsJPHBhdGggZmlsbD0idXJsKCNBKSIgZD0iTTI0LjEwNCA4LjEwMmE0Ljk3IDQuOTcgMCAwIDEgMS4wNDIgMS41MzRjLjI5MS41NDkuNDM4IDEuMTUyLjQzOCAxLjgxdjExLjcyNWMwIDEuMjQxLS40MjEgMi4yNjUtMS4yNjIgMy4wNjgtLjgzOC44NDItMS44OCAxLjI2MS0zLjEyMSAxLjI2MUgzLjgyN2E0LjE4IDQuMTggMCAwIDEtMy4wNjgtMS4yNjFDLS4wODEgMjUuNDM2LS41IDI0LjQxMi0uNSAyMy4xNzFWMTEuNDQ0YzAtMS4zODcuNDkxLTIuNTAyIDEuNDc4LTMuMzQyTDkuNjM4LjU5NkE0LjUgNC41IDAgMCAxIDEyLjU5NC0uNSA0LjA5IDQuMDkgMCAwIDEgMTUuNDQ0LjU5NnptLTkuMzcgNy44MzZIMTAuMzV2OC43MTNoNC4zODR6bTcuNzgyLTQuNDk0YzAtLjQ3My0uMTQ3LS44NTktLjQzOC0xLjE1bC04LjY1OC03LjUwNmMtLjYyMS0uNDczLTEuMjYxLS40NzMtMS45MTggMGwtOC42NTUgNy41MDZjLS4yOTMuMjkzLS40MzguNjc3LS40MzggMS4xNTJ2MTEuNzI1YzAgLjQzOC4xMjguODAzLjM4NCAxLjA5NmExLjUzIDEuNTMgMCAwIDAgMS4wNC4zODRoMy42MTd2LTguNzEzYzAtLjgwMy4yNzQtMS40OC44MjEtMi4wMjcuNTg2LS41ODYgMS4yOC0uODc3IDIuMDgzLS44NzdoNC4zODRhMi42NiAyLjY2IDAgMCAxIDIuMDI3Ljg3N2MuNTQ5LjU0Ny44MjIgMS4yMjQuODIyIDIuMDI3djguNzEzaDMuNjE3Yy40MzggMCAuNzg0LS4xMjggMS4wNC0uMzg0LjE0NC0uMTQzLjI1Ny0uMzE0LjMzMy0uNTAzcy4xMTEtLjM5LjEwNi0uNTkzeiIvPiYjeGE7PC9zdmc+;labelPosition=center;align=left;fontStyle=1;spacingLeft=0;fontSize=16;fontColor=#1D2D3E;html=1;" vertex="1" parent="1">
          <mxGeometry x="1479" y="570" width="28" height="30" as="geometry">
            <mxPoint x="15" y="-90" as="offset" />
          </mxGeometry>
        </mxCell>
        <mxCell id="jWsYO69XkJvmNmhxUWtM-48" value="Cloud Connector" style="shape=image;editableCssRules=.*;verticalLabelPosition=middle;labelBackgroundColor=none;verticalAlign=middle;aspect=fixed;imageAspect=0;image=data:image/svg+xml,PHN2ZyB4bWxucz0iaHR0cDovL3d3dy53My5vcmcvMjAwMC9zdmciIHZpZXdCb3g9Ii0wLjUgLTAuNSAyOCAyNy45NDYiIGhlaWdodD0iMjcuOTQ2IiB3aWR0aD0iMjgiPiYjeGE7CSAgPHN0eWxlIHR5cGU9InRleHQvY3NzIj4uc3QwIHsgc3RvcC1jb2xvcjogcmdiKDM1LCAxNDksIDI1NSk7IH0gLnN0MSB7IHN0b3AtY29sb3I6IHJnYigwLCA4NywgMjEwKTsgfSA8L3N0eWxlPiYjeGE7CTxkZWZzPiYjeGE7CQk8bGluZWFyR3JhZGllbnQgZ3JhZGllbnRVbml0cz0idXNlclNwYWNlT25Vc2UiIHkyPSIyNS4zMDEiIHgyPSIyMy40MTIiIHkxPSIzLjQ2NiIgeDE9IjIuMDM5IiBpZD0iQSI+JiN4YTsJCQk8c3RvcCBjbGFzcz0ic3QwIi8+JiN4YTsJCQk8c3RvcCBjbGFzcz0ic3QxIiBvZmZzZXQ9IjEiLz4mI3hhOwkJPC9saW5lYXJHcmFkaWVudD4mI3hhOwk8L2RlZnM+JiN4YTsJPHBhdGggZmlsbD0idXJsKCNBKSIgZD0iTTI3LjA2MiAyNS4wOTRjLjI5Mi4yOTIuNDM4LjYwMi40MzguOTI5YTEuMzYgMS4zNiAwIDAgMS0uNDM3Ljk4NSAxLjM2IDEuMzYgMCAwIDEtLjk4NS40MzhjLS4xODUtLjAwMi0uMzY4LS4wNDItLjUzNy0uMTE3YTEuMzYgMS4zNiAwIDAgMS0uNDQ3LS4zMmwtNS4xNDItNS4xNDJjLTEuMTI5LjkxMi0yLjQwNCAxLjMzLTMuODI3IDEuMjU4cy0yLjY2LS42MzktMy43MTktMS42OTZMNS42NzkgMTQuNzZjLS40OS0uNTE3LS44OTUtMS4xMDctMS4yMDItMS43NWE1LjU5IDUuNTkgMCAwIDEtLjQ5Mi0xLjk2OWMtLjAwMS0uNjg0LjA5LTEuMzY1LjI3My0yLjAyNS4yMTktLjY1Ni41NjUtMS4yNTYgMS4wNC0xLjgwM2wtNS4zNi01LjMwOUExLjM2IDEuMzYgMCAwIDEtLjUuOTIxYzAtLjM2Mi4xNDUtLjY5MS40MzgtLjk4M0ExLjM2IDEuMzYgMCAwIDEgLjkyMy0uNWMuMzY0IDAgLjY5MS4xNDUuOTg0LjQzN2w1LjMwNCA1LjMwNEM4LjI4IDQuMzUgOS42NDkgMy45IDExLjAzOSAzLjk4M2MxLjQyMS4wNzQgMi42Ni42MzkgMy43MTkgMS42OTdsNi43MjcgNi42NzFjLjUwOS41NDYuOTEgMS4xNDggMS4yMDIgMS44MDQuNTgxIDEuMjM0LjY2IDIuNjQ2LjIxOSAzLjkzNy0uMjE4LjY1NS0uNTUyIDEuMjY2LS45ODUgMS44MDR6TTcuNjQ4IDguNzQyYy0uMjY0LjI1NS0uNDczLjU2MS0uNjEzLjlzLS4yMTEuNzAyLS4yMDYgMS4wNjljMCAuNzMuMjczIDEuMzY5LjgxOSAxLjkxNUwxMCAxNS4wMzEgMTUuMDMxIDEwbC0yLjM1Mi0yLjQwNmMtLjI1NS0uMjY0LS41NjEtLjQ3My0uODk5LS42MTRzLS43MDMtLjIxMS0xLjA2OS0uMjA2Yy0uNzI4IDAtMS4zODQuMjc1LTEuOTY5LjgyMXptNi43MjcgMTAuNjFjLjI0Ni4yNi41NDMuNDY3Ljg3Mi42MDhzLjY4NC4yMTMgMS4wNDIuMjEyYy43NjUgMCAxLjQyMS0uMjc1IDEuOTY5LS44MjNsMS4xNDgtMS4wOTJjLjU0OC0uNTg0LjgyMS0xLjI0MS44MjEtMS45NjkgMC0uNzY3LS4yNzMtMS40MjMtLjgyMS0xLjk2OUwxNyAxMS45NjkgMTEuOTY5IDE3eiIvPiYjeGE7PC9zdmc+;labelPosition=right;align=left;fontSize=10;" vertex="1" parent="1">
          <mxGeometry x="1473.9993548387097" y="739.0026315789474" width="28" height="28" as="geometry" />
        </mxCell>
        <mxCell id="jWsYO69XkJvmNmhxUWtM-49" value="" style="shape=image;editableCssRules=.*;part=0;verticalLabelPosition=bottom;labelBackgroundColor=default;verticalAlign=top;imageAspect=0;image=data:image/svg+xml,PHN2ZyB4bWxucz0iaHR0cDovL3d3dy53My5vcmcvMjAwMC9zdmciIHZpZXdCb3g9Ii0wLjUgLTAuNSAyOCAxOC40MTIiIGhlaWdodD0iMTguNDEyIiB3aWR0aD0iMjgiPiYjeGE7CSAgPHN0eWxlIHR5cGU9InRleHQvY3NzIj4uc3QwIHsgc3RvcC1jb2xvcjogcmdiKDM1LCAxNDksIDI1NSk7IH0gLnN0MSB7IHN0b3AtY29sb3I6IHJnYigwLCA4NywgMjEwKTsgfSA8L3N0eWxlPiYjeGE7CTxkZWZzPiYjeGE7CQk8bGluZWFyR3JhZGllbnQgZ3JhZGllbnRVbml0cz0idXNlclNwYWNlT25Vc2UiIHkyPSIyMi4wMDgiIHgyPSIxNC44NjkiIHkxPSIyLjExMyIgeDE9IjIuMDM5IiBpZD0iQSI+JiN4YTsJCQk8c3RvcCBjbGFzcz0ic3QwIi8+JiN4YTsJCQk8c3RvcCBjbGFzcz0ic3QxIiBvZmZzZXQ9IjEiLz4mI3hhOwkJPC9saW5lYXJHcmFkaWVudD4mI3hhOwk8L2RlZnM+JiN4YTsJPHBhdGggZmlsbD0idXJsKCNBKSIgZD0iTTUuOTAzIDYuMDQ3QzYuNDM0IDIuMzQ1IDkuNjE5LS41IDEzLjQ2Ny0uNWMyLjgwMSAwIDUuMjQ3IDEuNTA2IDYuNTc3IDMuNzQ5aC4xMjRjNC4wNDkgMCA3LjMzMSAzLjI4MiA3LjMzMSA3LjMzMXMtMy4yODIgNy4zMzEtNy4zMzEgNy4zMzFoLTQuMDU0Yy0uMDg3IDAtLjE3My0uMDAyLS4yNTktLjAwNS0uMDc4LjAwMy0uMTU1LjAwNS0uMjMzLjAwNUg1LjQzMmMtMy4yNzYgMC01LjkzMi0yLjY1Ni01LjkzMi01LjkzMnMyLjY1Ni01LjkzMiA1LjkzMi01LjkzMnpNMTMuNDY3IDIuM2MtMi42NzQgMC00Ljg0MiAyLjE2OC00Ljg0MiA0Ljg0MmE0Ljk0IDQuOTQgMCAwIDAgLjAwNi4yMzggMS40IDEuNCAwIDAgMS0xLjM5OCAxLjQ2N2gtMS44Yy0xLjczIDAtMy4xMzIgMS40MDItMy4xMzIgMy4xMzJzMS40MDIgMy4xMzIgMy4xMzIgMy4xMzJoMTAuMTlhMy4xNCAzLjE0IDAgMCAwIC4xNi0uMDA0IDEuMzkgMS4zOSAwIDAgMSAuMTMxIDBjLjA2Ny4wMDMuMTM0LjAwNC4yMDIuMDA0aDQuMDU0YTQuNTMgNC41MyAwIDEgMCAwLTkuMDYyaC0uOTc3YTEuNCAxLjQgMCAwIDEtMS4yODMtLjg0QzE3LjE2MSAzLjQ5NCAxNS40NTIgMi4zIDEzLjQ2NyAyLjN6IiBmaWxsLXJ1bGU9ImV2ZW5vZGQiLz4mI3hhOzwvc3ZnPg==;labelPosition=center;align=left;fontSize=16;fontStyle=1;spacingLeft=0;" vertex="1" parent="1">
          <mxGeometry x="1477.42" y="802.09" width="34" height="22" as="geometry">
            <mxPoint x="15" y="-81" as="offset" />
          </mxGeometry>
        </mxCell>
        <mxCell id="jWsYO69XkJvmNmhxUWtM-50" value="&lt;span style=&quot;background-color: rgb(255, 255, 255);&quot;&gt;&lt;span style=&quot;text-wrap-mode: nowrap; font-weight: 700; font-size: 16px; color: rgb(29, 45, 62);&quot;&gt;SAP Cloud&lt;/span&gt;&lt;br&gt;&lt;span style=&quot;text-wrap-mode: nowrap; font-weight: 700; font-size: 16px; color: rgb(29, 45, 62);&quot;&gt;Solutions&lt;/span&gt;&lt;br&gt;&lt;/span&gt;&lt;div&gt;&lt;br&gt;&lt;/div&gt;" style="text;whiteSpace=wrap;html=1;" vertex="1" parent="1">
          <mxGeometry x="1477.42" y="824.09" width="120" height="60" as="geometry" />
        </mxCell>
        <mxCell id="jWsYO69XkJvmNmhxUWtM-51" value="&lt;font style=&quot;color: rgb(0, 0, 0);&quot; size=&quot;1&quot;&gt;&lt;b style=&quot;&quot;&gt;CDM&lt;/b&gt;&lt;/font&gt;" style="rounded=1;whiteSpace=wrap;html=1;arcSize=50;strokeColor=#000000;fillColor=#f5f6f7;strokeWidth=1.5;" vertex="1" parent="1">
          <mxGeometry x="1443.92" y="990" width="45" height="16" as="geometry" />
        </mxCell>
        <mxCell id="jWsYO69XkJvmNmhxUWtM-52" value="SAP Joule" style="shape=mxgraph.sap.icon;labelPosition=center;verticalLabelPosition=bottom;align=center;verticalAlign=top;strokeWidth=1;strokeColor=#D5DADD;fillColor=#EDEFF0;gradientColor=#FCFCFC;gradientDirection=west;aspect=fixed;SAPIcon=SAP_Digital_Assistant_Service;labelBackgroundColor=default;" vertex="1" parent="1">
          <mxGeometry x="825.3800000000001" y="646" width="50" height="50" as="geometry" />
        </mxCell>
        <mxCell id="jWsYO69XkJvmNmhxUWtM-53" value="" style="endArrow=none;html=1;strokeColor=#5B738B;bendable=1;rounded=0;endFill=0;endSize=4;strokeWidth=3;startSize=4;startArrow=none;startFill=0;jumpStyle=gap;" edge="1" parent="1">
          <mxGeometry width="50" height="50" relative="1" as="geometry">
            <mxPoint x="1424" y="544.32" as="sourcePoint" />
            <mxPoint x="1424" y="1184.32" as="targetPoint" />
            <Array as="points" />
          </mxGeometry>
        </mxCell>
        <mxCell id="jWsYO69XkJvmNmhxUWtM-54" value="" style="rounded=1;whiteSpace=wrap;html=1;strokeColor=#0070F2;fillColor=#ffffff;arcSize=24;absoluteArcSize=1;imageWidth=64;imageHeight=64;strokeWidth=1.5;part=1;verticalAlign=top;align=left;fontSize=16;fontStyle=1;spacingLeft=10;spacingTop=10;" vertex="1" parent="1">
          <mxGeometry x="918" y="597" width="256" height="161" as="geometry" />
        </mxCell>
        <mxCell id="jWsYO69XkJvmNmhxUWtM-55" value="SAP Build Work Zone&lt;div&gt;&lt;br/&gt;&lt;/div&gt;" style="shape=mxgraph.sap.icon;labelPosition=right;verticalLabelPosition=middle;align=left;verticalAlign=middle;strokeWidth=1;strokeColor=#D5DADD;fillColor=#EDEFF0;gradientColor=#FCFCFC;gradientDirection=west;aspect=fixed;SAPIcon=SAP_Build_Work_Zone_-_Standard_Edition;fontSize=16;fontStyle=1;html=1;spacingLeft=10;spacing=0;" vertex="1" parent="1">
          <mxGeometry x="933" y="613" width="48" height="48" as="geometry" />
        </mxCell>
        <mxCell id="jWsYO69XkJvmNmhxUWtM-56" value="Navigation&#xa;Service" style="shape=image;editableCssRules=.*;verticalLabelPosition=bottom;labelBackgroundColor=default;verticalAlign=top;aspect=fixed;imageAspect=0;image=data:image/svg+xml,PHN2ZyB4bWxucz0iaHR0cDovL3d3dy53My5vcmcvMjAwMC9zdmciIHZpZXdCb3g9Ii0wLjUgLTAuNSAyNS4yIDI4IiBoZWlnaHQ9IjI4IiB3aWR0aD0iMjUuMiI+JiN4YTsJICA8c3R5bGUgdHlwZT0idGV4dC9jc3MiPiYjeGE7CQkuc3Qwe3N0b3AtY29sb3I6IzAwY2VhYzt9JiN4YTsJCS5zdDF7c3RvcC1jb2xvcjojMDc4MzhmO30mI3hhOwkgIDwvc3R5bGU+JiN4YTsJPGRlZnM+JiN4YTsJCTxsaW5lYXJHcmFkaWVudCBncmFkaWVudFVuaXRzPSJ1c2VyU3BhY2VPblVzZSIgeTI9IjIzLjA1NyIgeDI9IjIzLjEyNiIgeTE9IjMuNDc0IiB4MT0iMS43ODUiIGlkPSJBIj4mI3hhOwkJCTxzdG9wIGNsYXNzPSJzdDAiLz4mI3hhOwkJCTxzdG9wIGNsYXNzPSJzdDEiIG9mZnNldD0iMSIvPiYjeGE7CQk8L2xpbmVhckdyYWRpZW50PiYjeGE7CTwvZGVmcz4mI3hhOwk8cGF0aCBmaWxsPSJ1cmwoI0EpIiBkPSJNMTEuNzU3LS40ODNDMTEuNDQ1LS40MDEuMTg0IDQuNzExLjAyIDQuODM3YTEuNzkgMS43OSAwIDAgMC0uMzU2LjQ3MWwtLjE2NC4zMjN2Ny44ODJWMjEuNGwuMTM3LjI2OGMuMDc3LjE0OC4yMjQuMzQ1LjMzOS40MzguMTMxLjExNSAyLjE3MiAxLjA2MiA1Ljk1OSAyLjc2NCA2LjE4MyAyLjc4MSA2LjA3NCAyLjczNyA2LjU3NyAyLjU2Mi4zOTktLjEzNyAxMS4zNy01LjA4NSAxMS41OTUtNS4yMjcuMjMtLjE0OC40Ni0uNDYuNTM2LS43MjguMDgyLS4yNzQuMDcxLTE1LjY2NS0uMDA2LTE1Ljk1LS4wODItLjI4NS0uMzM0LS42MzUtLjU1OC0uNzY2LS4wOTMtLjA2LTIuNzM2LTEuMjY0LTUuODY2LTIuNjcxLTUuMTYtMi4zMjYtNS43MjQtMi41NjctNi4wMTktMi41ODQtLjE4MS0uMDExLS4zNzgtLjAwNS0uNDM4LjAxMXptNC4yMjQgNC42NTNsMy44MDggMS43NzNjLS4wNjYuMDY2LTcuNTg0IDMuNDQ4LTcuNjc3IDMuNDU0YTM0OS43NSAzNDkuNzUgMCAwIDEtNy43MjYtMy40NTRjLS4wMzMtLjAyNyA3LjU3My0zLjQ5MiA3LjY5My0zLjUwMy4wMjctLjAwNSAxLjc4NC43NzIgMy45MDEgMS43M3ptLTkuNDIzIDUuODQ2bDQuMTMxIDEuODYxdjYuMDA1bC0uMDM4IDYuMDFjLS4wMTYgMC0xLjkwNC0uODQzLTQuMTg2LTEuODY3bC00LjE0OC0xLjg3MnYtNi4wMTVsLjA1NS01Ljk5OWMuMDI3LjAwNSAxLjkxLjg1NCA0LjE4NiAxLjg3N3ptMTUuMzQ5IDQuMTIydjYuMDFsLTQuMTE1IDEuODU1LTQuMjEzIDEuODc4Yy0uMDkzLjAyMi0uMDk4LS4yNzQtLjA4OC01Ljk4OGwuMDE2LTYuMDEgNC4xNTgtMS44NzcgNC4yMDMtMS44NzdjLjAyMiAwIC4wMzggMi43MDQuMDM4IDYuMDF6Ii8+JiN4YTs8L3N2Zz4=;" vertex="1" parent="1">
          <mxGeometry x="1028.63" y="686" width="25" height="28" as="geometry" />
        </mxCell>
        <mxCell id="jWsYO69XkJvmNmhxUWtM-57" value="&lt;font style=&quot;color: rgb(71, 94, 117);&quot; size=&quot;1&quot;&gt;&lt;b style=&quot;&quot;&gt;IAM&lt;/b&gt;&lt;/font&gt;" style="rounded=1;whiteSpace=wrap;html=1;arcSize=50;strokeColor=#475E75;fillColor=#E6E6E6;fontColor=#266f3a;strokeWidth=1.5;" vertex="1" parent="1">
          <mxGeometry x="1003" y="763" width="72" height="14.5" as="geometry" />
        </mxCell>
        <mxCell id="jWsYO69XkJvmNmhxUWtM-58" value="" style="edgeStyle=orthogonalEdgeStyle;rounded=0;orthogonalLoop=1;jettySize=auto;html=1;endArrow=blockThin;endFill=1;strokeColor=#475e74;endSize=4;startSize=4;strokeWidth=1.5;entryX=-0.001;entryY=0.461;entryDx=0;entryDy=0;exitX=1;exitY=0.5;exitDx=0;exitDy=0;exitPerimeter=0;entryPerimeter=0;" edge="1" parent="1" source="jWsYO69XkJvmNmhxUWtM-52" target="jWsYO69XkJvmNmhxUWtM-54">
          <mxGeometry relative="1" as="geometry">
            <mxPoint x="930" y="653" as="targetPoint" />
            <mxPoint x="785" y="822" as="sourcePoint" />
          </mxGeometry>
        </mxCell>
        <mxCell id="jWsYO69XkJvmNmhxUWtM-59" style="edgeStyle=orthogonalEdgeStyle;rounded=0;orthogonalLoop=1;jettySize=auto;html=1;fontSize=18;strokeColor=#188918;fontFamily=Helvetica;fontColor=default;targetPerimeterSpacing=15;endSize=4;startSize=4;endArrow=none;endFill=1;strokeWidth=1.5;startArrow=none;startFill=0;exitX=0.5;exitY=1;exitDx=0;exitDy=0;entryX=0.5;entryY=0;entryDx=0;entryDy=0;" edge="1" parent="1" source="jWsYO69XkJvmNmhxUWtM-57" target="jWsYO69XkJvmNmhxUWtM-17">
          <mxGeometry relative="1" as="geometry">
            <mxPoint x="1298" y="678" as="targetPoint" />
            <mxPoint x="1307" y="487" as="sourcePoint" />
          </mxGeometry>
        </mxCell>
        <mxCell id="jWsYO69XkJvmNmhxUWtM-60" value="" style="shape=mxgraph.sap.icon;labelPosition=center;verticalLabelPosition=bottom;align=center;verticalAlign=top;strokeWidth=1;strokeColor=#D5DADD;fillColor=#EDEFF0;gradientColor=#FCFCFC;gradientDirection=west;aspect=fixed;SAPIcon=SAP_Cloud_Identity_Service" vertex="1" parent="1">
          <mxGeometry x="810" y="859.0799999999999" width="50" height="50" as="geometry" />
        </mxCell>
        <mxCell id="jWsYO69XkJvmNmhxUWtM-61" style="edgeStyle=orthogonalEdgeStyle;rounded=0;orthogonalLoop=1;jettySize=auto;html=1;fontSize=18;strokeColor=#5D36FF;fontFamily=Helvetica;fontColor=default;targetPerimeterSpacing=15;endSize=4;startSize=4;endArrow=none;endFill=1;strokeWidth=1.5;startArrow=none;startFill=0;exitX=0.5;exitY=1;exitDx=0;exitDy=0;entryX=0.5;entryY=0;entryDx=0;entryDy=0;" edge="1" parent="1">
          <mxGeometry relative="1" as="geometry">
            <mxPoint x="1025" y="842" as="targetPoint" />
            <mxPoint x="1025" y="777" as="sourcePoint" />
          </mxGeometry>
        </mxCell>
        <mxCell id="jWsYO69XkJvmNmhxUWtM-62" style="edgeStyle=orthogonalEdgeStyle;rounded=0;orthogonalLoop=1;jettySize=auto;html=1;fontSize=18;strokeColor=#475E75;fontFamily=Helvetica;fontColor=default;targetPerimeterSpacing=15;endSize=4;startSize=4;endArrow=none;endFill=1;strokeWidth=1.5;startArrow=none;startFill=0;exitX=0.5;exitY=1;exitDx=0;exitDy=0;entryX=0.5;entryY=0;entryDx=0;entryDy=0;" edge="1" parent="1">
          <mxGeometry relative="1" as="geometry">
            <mxPoint x="1053.63" y="842.5" as="targetPoint" />
            <mxPoint x="1053.63" y="777.5" as="sourcePoint" />
          </mxGeometry>
        </mxCell>
        <mxCell id="jWsYO69XkJvmNmhxUWtM-63" value="&lt;font style=&quot;color: rgb(71, 94, 117);&quot; size=&quot;1&quot;&gt;&lt;b style=&quot;&quot;&gt;IAM&lt;/b&gt;&lt;/font&gt;" style="rounded=1;whiteSpace=wrap;html=1;arcSize=50;strokeColor=#475E75;fillColor=#E6E6E6;fontColor=#266f3a;strokeWidth=1.5;" vertex="1" parent="1">
          <mxGeometry x="1443.92" y="1011" width="72" height="14.5" as="geometry" />
        </mxCell>
        <mxCell id="jWsYO69XkJvmNmhxUWtM-64" value="&lt;font style=&quot;color: rgb(0, 0, 0);&quot; size=&quot;1&quot;&gt;&lt;b style=&quot;&quot;&gt;CDM&lt;/b&gt;&lt;/font&gt;" style="rounded=1;whiteSpace=wrap;html=1;arcSize=50;strokeColor=#000000;fillColor=#f5f6f7;strokeWidth=1.5;" vertex="1" parent="1">
          <mxGeometry x="1443.92" y="696" width="45" height="16" as="geometry" />
        </mxCell>
        <mxCell id="jWsYO69XkJvmNmhxUWtM-65" value="&lt;font style=&quot;color: rgb(71, 94, 117);&quot; size=&quot;1&quot;&gt;&lt;b style=&quot;&quot;&gt;IAM&lt;/b&gt;&lt;/font&gt;" style="rounded=1;whiteSpace=wrap;html=1;arcSize=50;strokeColor=#475E75;fillColor=#E6E6E6;fontColor=#266f3a;strokeWidth=1.5;" vertex="1" parent="1">
          <mxGeometry x="1443.92" y="717" width="72" height="14.5" as="geometry" />
        </mxCell>
        <mxCell id="jWsYO69XkJvmNmhxUWtM-66" style="edgeStyle=orthogonalEdgeStyle;rounded=0;orthogonalLoop=1;jettySize=auto;html=1;fontSize=18;strokeColor=#475E75;fontFamily=Helvetica;fontColor=default;targetPerimeterSpacing=15;endSize=4;startSize=4;endArrow=none;endFill=1;strokeWidth=1.5;startArrow=none;startFill=0;exitX=0;exitY=0.25;exitDx=0;exitDy=0;entryX=0.701;entryY=0.949;entryDx=0;entryDy=0;entryPerimeter=0;" edge="1" parent="1" source="jWsYO69XkJvmNmhxUWtM-65" target="jWsYO69XkJvmNmhxUWtM-57">
          <mxGeometry relative="1" as="geometry">
            <mxPoint x="1049" y="863" as="targetPoint" />
            <mxPoint x="1049" y="798" as="sourcePoint" />
            <Array as="points">
              <mxPoint x="1264" y="721" />
              <mxPoint x="1264" y="798" />
              <mxPoint x="1054" y="798" />
            </Array>
          </mxGeometry>
        </mxCell>
        <mxCell id="jWsYO69XkJvmNmhxUWtM-67" value="&lt;font style=&quot;color: rgb(0, 0, 0);&quot; size=&quot;1&quot;&gt;&lt;b style=&quot;&quot;&gt;CDM&lt;/b&gt;&lt;/font&gt;" style="rounded=1;whiteSpace=wrap;html=1;arcSize=50;strokeColor=#000000;fillColor=#f5f6f7;strokeWidth=1.5;" vertex="1" parent="1">
          <mxGeometry x="1154" y="696" width="45" height="16" as="geometry" />
        </mxCell>
        <mxCell id="jWsYO69XkJvmNmhxUWtM-68" style="edgeStyle=orthogonalEdgeStyle;rounded=0;orthogonalLoop=1;jettySize=auto;html=1;fontSize=18;strokeColor=#475E75;fontFamily=Helvetica;fontColor=default;targetPerimeterSpacing=15;endSize=4;startSize=4;endArrow=none;endFill=1;strokeWidth=1.5;startArrow=none;startFill=0;exitX=0;exitY=0.25;exitDx=0;exitDy=0;entryX=0.707;entryY=1.017;entryDx=0;entryDy=0;entryPerimeter=0;" edge="1" parent="1" source="jWsYO69XkJvmNmhxUWtM-63" target="jWsYO69XkJvmNmhxUWtM-57">
          <mxGeometry relative="1" as="geometry">
            <mxPoint x="1351" y="773" as="targetPoint" />
            <mxPoint x="1742" y="717" as="sourcePoint" />
            <Array as="points">
              <mxPoint x="1264" y="1015" />
              <mxPoint x="1264" y="798" />
              <mxPoint x="1054" y="798" />
            </Array>
          </mxGeometry>
        </mxCell>
        <mxCell id="jWsYO69XkJvmNmhxUWtM-69" style="edgeStyle=orthogonalEdgeStyle;rounded=0;orthogonalLoop=1;jettySize=auto;html=1;fontSize=18;strokeColor=#000000;fontFamily=Helvetica;fontColor=default;targetPerimeterSpacing=15;endSize=4;startSize=4;endArrow=none;endFill=1;strokeWidth=1.5;startArrow=none;startFill=0;exitX=0;exitY=0.5;exitDx=0;exitDy=0;entryX=1;entryY=0.5;entryDx=0;entryDy=0;" edge="1" parent="1" source="jWsYO69XkJvmNmhxUWtM-64" target="jWsYO69XkJvmNmhxUWtM-67">
          <mxGeometry relative="1" as="geometry">
            <mxPoint x="1287" y="772" as="targetPoint" />
            <mxPoint x="1678" y="716" as="sourcePoint" />
          </mxGeometry>
        </mxCell>
        <mxCell id="jWsYO69XkJvmNmhxUWtM-70" style="edgeStyle=orthogonalEdgeStyle;rounded=0;orthogonalLoop=1;jettySize=auto;html=1;fontSize=18;strokeColor=#188918;fontFamily=Helvetica;fontColor=default;targetPerimeterSpacing=15;endSize=4;startSize=4;endArrow=none;endFill=1;strokeWidth=1.5;startArrow=none;startFill=0;exitX=0.5;exitY=1;exitDx=0;exitDy=0;entryX=0;entryY=0.5;entryDx=0;entryDy=0;" edge="1" parent="1" source="jWsYO69XkJvmNmhxUWtM-57" target="jWsYO69XkJvmNmhxUWtM-65">
          <mxGeometry relative="1" as="geometry">
            <mxPoint x="1034" y="865" as="targetPoint" />
            <mxPoint x="1034" y="801" as="sourcePoint" />
            <Array as="points">
              <mxPoint x="1039" y="806" />
              <mxPoint x="1260" y="806" />
              <mxPoint x="1260" y="724" />
            </Array>
          </mxGeometry>
        </mxCell>
        <mxCell id="jWsYO69XkJvmNmhxUWtM-71" style="edgeStyle=orthogonalEdgeStyle;rounded=0;orthogonalLoop=1;jettySize=auto;html=1;fontSize=18;strokeColor=#5D36FF;fontFamily=Helvetica;fontColor=default;targetPerimeterSpacing=15;endSize=4;startSize=4;endArrow=none;endFill=1;strokeWidth=1.5;startArrow=none;startFill=0;exitX=0.306;exitY=0.994;exitDx=0;exitDy=0;exitPerimeter=0;entryX=0;entryY=0.75;entryDx=0;entryDy=0;" edge="1" parent="1" source="jWsYO69XkJvmNmhxUWtM-57" target="jWsYO69XkJvmNmhxUWtM-63">
          <mxGeometry relative="1" as="geometry">
            <mxPoint x="1020" y="866" as="targetPoint" />
            <mxPoint x="1020" y="801" as="sourcePoint" />
            <Array as="points">
              <mxPoint x="1025" y="815" />
              <mxPoint x="1256" y="815" />
              <mxPoint x="1256" y="1022" />
            </Array>
          </mxGeometry>
        </mxCell>
        <mxCell id="jWsYO69XkJvmNmhxUWtM-72" style="edgeStyle=orthogonalEdgeStyle;rounded=0;orthogonalLoop=1;jettySize=auto;html=1;fontSize=18;strokeColor=#188918;fontFamily=Helvetica;fontColor=default;targetPerimeterSpacing=15;endSize=4;startSize=4;endArrow=none;endFill=1;strokeWidth=1.5;startArrow=none;startFill=0;exitX=0.5;exitY=1;exitDx=0;exitDy=0;entryX=0;entryY=0.5;entryDx=0;entryDy=0;" edge="1" parent="1" source="jWsYO69XkJvmNmhxUWtM-57" target="jWsYO69XkJvmNmhxUWtM-63">
          <mxGeometry relative="1" as="geometry">
            <mxPoint x="1666" y="757" as="targetPoint" />
            <mxPoint x="1261" y="811" as="sourcePoint" />
            <Array as="points">
              <mxPoint x="1039" y="806" />
              <mxPoint x="1260" y="806" />
              <mxPoint x="1260" y="1018" />
              <mxPoint x="1444" y="1018" />
            </Array>
          </mxGeometry>
        </mxCell>
        <mxCell id="jWsYO69XkJvmNmhxUWtM-73" style="edgeStyle=orthogonalEdgeStyle;rounded=0;orthogonalLoop=1;jettySize=auto;html=1;fontSize=18;strokeColor=#5D36FF;fontFamily=Helvetica;fontColor=default;targetPerimeterSpacing=15;endSize=4;startSize=4;endArrow=none;endFill=1;strokeWidth=1.5;startArrow=none;startFill=0;entryX=0;entryY=0.75;entryDx=0;entryDy=0;" edge="1" parent="1" target="jWsYO69XkJvmNmhxUWtM-65">
          <mxGeometry relative="1" as="geometry">
            <mxPoint x="1664" y="1055" as="targetPoint" />
            <mxPoint x="1025" y="842" as="sourcePoint" />
            <Array as="points">
              <mxPoint x="1025" y="815" />
              <mxPoint x="1256" y="815" />
              <mxPoint x="1256" y="728" />
            </Array>
          </mxGeometry>
        </mxCell>
        <mxCell id="jWsYO69XkJvmNmhxUWtM-74" style="edgeStyle=orthogonalEdgeStyle;rounded=0;orthogonalLoop=1;jettySize=auto;html=1;fontSize=18;strokeColor=#000000;fontFamily=Helvetica;fontColor=default;targetPerimeterSpacing=15;endSize=4;startSize=4;endArrow=none;endFill=1;strokeWidth=1.5;startArrow=none;startFill=0;exitX=0;exitY=0.5;exitDx=0;exitDy=0;entryX=1;entryY=0.5;entryDx=0;entryDy=0;" edge="1" parent="1" source="jWsYO69XkJvmNmhxUWtM-51" target="jWsYO69XkJvmNmhxUWtM-67">
          <mxGeometry relative="1" as="geometry">
            <mxPoint x="1324" y="698" as="targetPoint" />
            <mxPoint x="1569" y="698" as="sourcePoint" />
            <Array as="points">
              <mxPoint x="1218" y="998" />
              <mxPoint x="1218" y="704" />
            </Array>
          </mxGeometry>
        </mxCell>
        <mxCell id="jWsYO69XkJvmNmhxUWtM-75" value="&lt;span style=&quot;background-color: light-dark(#ffffff, var(--ge-dark-color, #121212));&quot;&gt;&lt;span style=&quot;text-wrap-mode: nowrap; font-weight: 700; font-size: 16px; color: rgb(29, 45, 62);&quot;&gt;SAP Private Cloud&lt;/span&gt;&lt;br&gt;&lt;span style=&quot;text-wrap-mode: nowrap; font-weight: 700; font-size: 10px; color: rgb(29, 45, 62);&quot;&gt;SAP S/4HANA cloud private edition&lt;/span&gt;&lt;/span&gt;" style="text;whiteSpace=wrap;html=1;" vertex="1" parent="1">
          <mxGeometry x="1474" y="603" width="150" height="95" as="geometry" />
        </mxCell>
        <mxCell id="jWsYO69XkJvmNmhxUWtM-76" value="Role Mapping&#xa;Service" style="shape=image;editableCssRules=.*;verticalLabelPosition=bottom;labelBackgroundColor=default;verticalAlign=top;aspect=fixed;imageAspect=0;image=data:image/svg+xml,PHN2ZyB4bWxucz0iaHR0cDovL3d3dy53My5vcmcvMjAwMC9zdmciIHZpZXdCb3g9Ii0wLjUgLTAuNSAyNS4yIDI4IiBoZWlnaHQ9IjI4IiB3aWR0aD0iMjUuMiI+JiN4YTsJICA8c3R5bGUgdHlwZT0idGV4dC9jc3MiPiYjeGE7CQkuc3Qwe3N0b3AtY29sb3I6IzAwY2VhYzt9JiN4YTsJCS5zdDF7c3RvcC1jb2xvcjojMDc4MzhmO30mI3hhOwkgIDwvc3R5bGU+JiN4YTsJPGRlZnM+JiN4YTsJCTxsaW5lYXJHcmFkaWVudCBncmFkaWVudFVuaXRzPSJ1c2VyU3BhY2VPblVzZSIgeTI9IjIzLjA1NyIgeDI9IjIzLjEyNiIgeTE9IjMuNDc0IiB4MT0iMS43ODUiIGlkPSJBIj4mI3hhOwkJCTxzdG9wIGNsYXNzPSJzdDAiLz4mI3hhOwkJCTxzdG9wIGNsYXNzPSJzdDEiIG9mZnNldD0iMSIvPiYjeGE7CQk8L2xpbmVhckdyYWRpZW50PiYjeGE7CTwvZGVmcz4mI3hhOwk8cGF0aCBmaWxsPSJ1cmwoI0EpIiBkPSJNMTEuNzU3LS40ODNDMTEuNDQ1LS40MDEuMTg0IDQuNzExLjAyIDQuODM3YTEuNzkgMS43OSAwIDAgMC0uMzU2LjQ3MWwtLjE2NC4zMjN2Ny44ODJWMjEuNGwuMTM3LjI2OGMuMDc3LjE0OC4yMjQuMzQ1LjMzOS40MzguMTMxLjExNSAyLjE3MiAxLjA2MiA1Ljk1OSAyLjc2NCA2LjE4MyAyLjc4MSA2LjA3NCAyLjczNyA2LjU3NyAyLjU2Mi4zOTktLjEzNyAxMS4zNy01LjA4NSAxMS41OTUtNS4yMjcuMjMtLjE0OC40Ni0uNDYuNTM2LS43MjguMDgyLS4yNzQuMDcxLTE1LjY2NS0uMDA2LTE1Ljk1LS4wODItLjI4NS0uMzM0LS42MzUtLjU1OC0uNzY2LS4wOTMtLjA2LTIuNzM2LTEuMjY0LTUuODY2LTIuNjcxLTUuMTYtMi4zMjYtNS43MjQtMi41NjctNi4wMTktMi41ODQtLjE4MS0uMDExLS4zNzgtLjAwNS0uNDM4LjAxMXptNC4yMjQgNC42NTNsMy44MDggMS43NzNjLS4wNjYuMDY2LTcuNTg0IDMuNDQ4LTcuNjc3IDMuNDU0YTM0OS43NSAzNDkuNzUgMCAwIDEtNy43MjYtMy40NTRjLS4wMzMtLjAyNyA3LjU3My0zLjQ5MiA3LjY5My0zLjUwMy4wMjctLjAwNSAxLjc4NC43NzIgMy45MDEgMS43M3ptLTkuNDIzIDUuODQ2bDQuMTMxIDEuODYxdjYuMDA1bC0uMDM4IDYuMDFjLS4wMTYgMC0xLjkwNC0uODQzLTQuMTg2LTEuODY3bC00LjE0OC0xLjg3MnYtNi4wMTVsLjA1NS01Ljk5OWMuMDI3LjAwNSAxLjkxLjg1NCA0LjE4NiAxLjg3N3ptMTUuMzQ5IDQuMTIydjYuMDFsLTQuMTE1IDEuODU1LTQuMjEzIDEuODc4Yy0uMDkzLjAyMi0uMDk4LS4yNzQtLjA4OC01Ljk4OGwuMDE2LTYuMDEgNC4xNTgtMS44NzcgNC4yMDMtMS44NzdjLjAyMiAwIC4wMzggMi43MDQuMDM4IDYuMDF6Ii8+JiN4YTs8L3N2Zz4=;" vertex="1" parent="1">
          <mxGeometry x="1100" y="686" width="25" height="28" as="geometry" />
        </mxCell>
      </root>
    </mxGraphModel>
  </diagram>
</mxfile>
